<?xml version="1.0" encoding="UTF-8" standalone="no"?>
<!DOCTYPE svg PUBLIC "-//W3C//DTD SVG 1.1//EN"
 "http://www.w3.org/Graphics/SVG/1.1/DTD/svg11.dtd">
<!-- Generated by graphviz version 2.47.0 (20210316.0004)
 -->
<!-- Title: dependencies Pages: 1 -->
<svg width="995pt" height="284pt"
 viewBox="0.00 0.00 995.00 284.00" xmlns="http://www.w3.org/2000/svg" xmlns:xlink="http://www.w3.org/1999/xlink">
<g id="graph0" class="graph" transform="scale(1 1) rotate(0) translate(4 280)">
<title>dependencies</title>
<polygon fill="white" stroke="transparent" points="-4,4 -4,-280 991,-280 991,4 -4,4"/>
<text text-anchor="start" x="472.51" y="-42.4" font-family="Times-12" font-weight="bold" font-size="14.00">Legend</text>
<polygon fill="#ffffb3" stroke="transparent" points="259.5,-10 259.5,-30 279.5,-30 279.5,-10 259.5,-10"/>
<text text-anchor="start" x="283.13" y="-15.4" font-family="Times-12" font-size="14.00"> &#160;Declarations</text>
<polygon fill="#8dd3c7" stroke="transparent" points="372.5,-10 372.5,-30 392.5,-30 392.5,-10 372.5,-10"/>
<text text-anchor="start" x="396.23" y="-15.4" font-family="Times-12" font-size="14.00"> &#160;Module</text>
<polygon fill="#80b1d3" stroke="transparent" points="458.5,-10 458.5,-30 478.5,-30 478.5,-10 458.5,-10"/>
<text text-anchor="start" x="482.28" y="-15.4" font-family="Times-12" font-size="14.00"> &#160;Bootstrap</text>
<polygon fill="#fdb462" stroke="transparent" points="555.5,-10 555.5,-30 575.5,-30 575.5,-10 555.5,-10"/>
<text text-anchor="start" x="579.17" y="-15.4" font-family="Times-12" font-size="14.00"> &#160;Providers</text>
<polygon fill="#fb8072" stroke="transparent" points="651.5,-10 651.5,-30 671.5,-30 671.5,-10 651.5,-10"/>
<text text-anchor="start" x="675.23" y="-15.4" font-family="Times-12" font-size="14.00"> &#160;Exports</text>
<g id="clust1" class="cluster">
<title>cluster_UsersModule</title>
<polygon fill="none" stroke="black" stroke-dasharray="1,5" points="8,-70 8,-268 979,-268 979,-70 8,-70"/>
</g>
<g id="clust3" class="cluster">
<title>cluster_UsersModule_imports</title>
<polygon fill="none" stroke="black" points="835,-78 835,-130 971,-130 971,-78 835,-78"/>
</g>
<g id="clust6" class="cluster">
<title>cluster_UsersModule_providers</title>
<polygon fill="none" stroke="black" points="16,-78 16,-130 827,-130 827,-78 16,-78"/>
</g>
<g id="clust4" class="cluster">
<title>cluster_UsersModule_exports</title>
<polygon fill="none" stroke="black" points="440,-208 440,-260 550,-260 550,-208 440,-208"/>
</g>
<!-- PaginationModule -->
<g id="node1" class="node">
<title>PaginationModule</title>
<polygon fill="#8dd3c7" stroke="black" points="962.93,-122 959.93,-126 938.93,-126 935.93,-122 843.07,-122 843.07,-86 962.93,-86 962.93,-122"/>
<text text-anchor="middle" x="903" y="-99.8" font-family="Times,serif" font-size="14.00">PaginationModule</text>
</g>
<!-- UsersModule -->
<g id="node2" class="node">
<title>UsersModule</title>
<polygon fill="#8dd3c7" stroke="black" points="540.92,-187 537.92,-191 516.92,-191 513.92,-187 449.08,-187 449.08,-151 540.92,-151 540.92,-187"/>
<text text-anchor="middle" x="495" y="-164.8" font-family="Times,serif" font-size="14.00">UsersModule</text>
</g>
<!-- PaginationModule&#45;&gt;UsersModule -->
<g id="edge1" class="edge">
<title>PaginationModule&#45;&gt;UsersModule</title>
<path fill="none" stroke="black" d="M903,-122.28C903,-143.32 903,-175 903,-175 903,-175 551.01,-175 551.01,-175"/>
<polygon fill="black" stroke="black" points="551.01,-171.5 541.01,-175 551.01,-178.5 551.01,-171.5"/>
</g>
<!-- UsersService  -->
<g id="node3" class="node">
<title>UsersService </title>
<polygon fill="#fb8072" stroke="black" points="541.85,-252 448.15,-252 448.15,-216 541.85,-216 541.85,-252"/>
<text text-anchor="middle" x="495" y="-229.8" font-family="Times,serif" font-size="14.00">UsersService </text>
</g>
<!-- UsersModule&#45;&gt;UsersService  -->
<g id="edge2" class="edge">
<title>UsersModule&#45;&gt;UsersService </title>
<path fill="none" stroke="black" stroke-dasharray="5,2" d="M495,-187.11C495,-187.11 495,-205.99 495,-205.99"/>
<polygon fill="black" stroke="black" points="491.5,-205.99 495,-215.99 498.5,-205.99 491.5,-205.99"/>
</g>
<!-- CreateUserProvider -->
<g id="node4" class="node">
<title>CreateUserProvider</title>
<ellipse fill="#fdb462" stroke="black" cx="731" cy="-104" rx="87.94" ry="18"/>
<text text-anchor="middle" x="731" y="-99.8" font-family="Times,serif" font-size="14.00">CreateUserProvider</text>
</g>
<!-- CreateUserProvider&#45;&gt;UsersModule -->
<g id="edge3" class="edge">
<title>CreateUserProvider&#45;&gt;UsersModule</title>
<path fill="none" stroke="black" d="M731,-122.02C731,-139.37 731,-163 731,-163 731,-163 550.78,-163 550.78,-163"/>
<polygon fill="black" stroke="black" points="550.78,-159.5 540.78,-163 550.78,-166.5 550.78,-159.5"/>
</g>
<!-- FindOneUserByEmailProvider -->
<g id="node5" class="node">
<title>FindOneUserByEmailProvider</title>
<ellipse fill="#fdb462" stroke="black" cx="495" cy="-104" rx="130.8" ry="18"/>
<text text-anchor="middle" x="495" y="-99.8" font-family="Times,serif" font-size="14.00">FindOneUserByEmailProvider</text>
</g>
<!-- FindOneUserByEmailProvider&#45;&gt;UsersModule -->
<g id="edge4" class="edge">
<title>FindOneUserByEmailProvider&#45;&gt;UsersModule</title>
<path fill="none" stroke="black" d="M495,-122.11C495,-122.11 495,-140.99 495,-140.99"/>
<polygon fill="black" stroke="black" points="491.5,-140.99 495,-150.99 498.5,-140.99 491.5,-140.99"/>
</g>
<!-- UpdateUserProvider -->
<g id="node6" class="node">
<title>UpdateUserProvider</title>
<ellipse fill="#fdb462" stroke="black" cx="256" cy="-104" rx="90.31" ry="18"/>
<text text-anchor="middle" x="256" y="-99.8" font-family="Times,serif" font-size="14.00">UpdateUserProvider</text>
</g>
<!-- UpdateUserProvider&#45;&gt;UsersModule -->
<g id="edge5" class="edge">
<title>UpdateUserProvider&#45;&gt;UsersModule</title>
<path fill="none" stroke="black" d="M256,-122.02C256,-139.37 256,-163 256,-163 256,-163 439.2,-163 439.2,-163"/>
<polygon fill="black" stroke="black" points="439.2,-166.5 449.2,-163 439.2,-159.5 439.2,-166.5"/>
</g>
<!-- UsersService -->
<g id="node7" class="node">
<title>UsersService</title>
<ellipse fill="#fdb462" stroke="black" cx="86" cy="-104" rx="61.95" ry="18"/>
<text text-anchor="middle" x="86" y="-99.8" font-family="Times,serif" font-size="14.00">UsersService</text>
</g>
<!-- UsersService&#45;&gt;UsersModule -->
<g id="edge6" class="edge">
<title>UsersService&#45;&gt;UsersModule</title>
<path fill="none" stroke="black" d="M86,-122.28C86,-143.32 86,-175 86,-175 86,-175 439.27,-175 439.27,-175"/>
<polygon fill="black" stroke="black" points="439.27,-178.5 449.27,-175 439.27,-171.5 439.27,-178.5"/>
</g>
</g>
</svg>
