<?xml version="1.0" encoding="UTF-8" standalone="no"?>
<!DOCTYPE svg PUBLIC "-//W3C//DTD SVG 1.1//EN"
 "http://www.w3.org/Graphics/SVG/1.1/DTD/svg11.dtd">
<!-- Generated by graphviz version 2.47.0 (20210316.0004)
 -->
<!-- Title: dependencies Pages: 1 -->
<svg width="504pt" height="284pt"
 viewBox="0.00 0.00 504.00 284.00" xmlns="http://www.w3.org/2000/svg" xmlns:xlink="http://www.w3.org/1999/xlink">
<g id="graph0" class="graph" transform="scale(1 1) rotate(0) translate(4 280)">
<title>dependencies</title>
<polygon fill="white" stroke="transparent" points="-4,4 -4,-280 500,-280 500,4 -4,4"/>
<text text-anchor="start" x="227.01" y="-42.4" font-family="Times-12" font-weight="bold" font-size="14.00">Legend</text>
<polygon fill="#ffffb3" stroke="transparent" points="14,-10 14,-30 34,-30 34,-10 14,-10"/>
<text text-anchor="start" x="37.63" y="-15.4" font-family="Times-12" font-size="14.00"> &#160;Declarations</text>
<polygon fill="#8dd3c7" stroke="transparent" points="127,-10 127,-30 147,-30 147,-10 127,-10"/>
<text text-anchor="start" x="150.73" y="-15.4" font-family="Times-12" font-size="14.00"> &#160;Module</text>
<polygon fill="#80b1d3" stroke="transparent" points="213,-10 213,-30 233,-30 233,-10 213,-10"/>
<text text-anchor="start" x="236.78" y="-15.4" font-family="Times-12" font-size="14.00"> &#160;Bootstrap</text>
<polygon fill="#fdb462" stroke="transparent" points="310,-10 310,-30 330,-30 330,-10 310,-10"/>
<text text-anchor="start" x="333.67" y="-15.4" font-family="Times-12" font-size="14.00"> &#160;Providers</text>
<polygon fill="#fb8072" stroke="transparent" points="406,-10 406,-30 426,-30 426,-10 406,-10"/>
<text text-anchor="start" x="429.73" y="-15.4" font-family="Times-12" font-size="14.00"> &#160;Exports</text>
<g id="clust1" class="cluster">
<title>cluster_MailModule</title>
<polygon fill="none" stroke="black" stroke-dasharray="1,5" points="93,-70 93,-268 403,-268 403,-70 93,-70"/>
</g>
<g id="clust4" class="cluster">
<title>cluster_MailModule_exports</title>
<polygon fill="none" stroke="black" points="122,-208 122,-260 352,-260 352,-208 122,-208"/>
</g>
<g id="clust6" class="cluster">
<title>cluster_MailModule_providers</title>
<polygon fill="none" stroke="black" points="101,-78 101,-130 395,-130 395,-78 101,-78"/>
</g>
<!-- MailService  -->
<g id="node1" class="node">
<title>MailService </title>
<polygon fill="#fb8072" stroke="black" points="343.92,-252 256.08,-252 256.08,-216 343.92,-216 343.92,-252"/>
<text text-anchor="middle" x="300" y="-229.8" font-family="Times,serif" font-size="14.00">MailService </text>
</g>
<!-- MailjetProvider  -->
<g id="node2" class="node">
<title>MailjetProvider </title>
<polygon fill="#fb8072" stroke="black" points="238.15,-252 129.85,-252 129.85,-216 238.15,-216 238.15,-252"/>
<text text-anchor="middle" x="184" y="-229.8" font-family="Times,serif" font-size="14.00">MailjetProvider </text>
</g>
<!-- MailModule -->
<g id="node3" class="node">
<title>MailModule</title>
<polygon fill="#8dd3c7" stroke="black" points="246.99,-187 243.99,-191 222.99,-191 219.99,-187 161.01,-187 161.01,-151 246.99,-151 246.99,-187"/>
<text text-anchor="middle" x="204" y="-164.8" font-family="Times,serif" font-size="14.00">MailModule</text>
</g>
<!-- MailModule&#45;&gt;MailService  -->
<g id="edge1" class="edge">
<title>MailModule&#45;&gt;MailService </title>
<path fill="none" stroke="black" stroke-dasharray="5,2" d="M242.53,-187.11C242.53,-206.34 242.53,-234 242.53,-234 242.53,-234 245.86,-234 245.86,-234"/>
<polygon fill="black" stroke="black" points="245.86,-237.5 255.86,-234 245.86,-230.5 245.86,-237.5"/>
</g>
<!-- MailModule&#45;&gt;MailjetProvider  -->
<g id="edge2" class="edge">
<title>MailModule&#45;&gt;MailjetProvider </title>
<path fill="none" stroke="black" stroke-dasharray="5,2" d="M199.54,-187.11C199.54,-187.11 199.54,-205.99 199.54,-205.99"/>
<polygon fill="black" stroke="black" points="196.04,-205.99 199.54,-215.99 203.04,-205.99 196.04,-205.99"/>
</g>
<!-- MailService -->
<g id="node4" class="node">
<title>MailService</title>
<ellipse fill="#fdb462" stroke="black" cx="329" cy="-104" rx="58.46" ry="18"/>
<text text-anchor="middle" x="329" y="-99.8" font-family="Times,serif" font-size="14.00">MailService</text>
</g>
<!-- MailService&#45;&gt;MailModule -->
<g id="edge3" class="edge">
<title>MailService&#45;&gt;MailModule</title>
<path fill="none" stroke="black" d="M307.36,-120.74C307.36,-140 307.36,-169 307.36,-169 307.36,-169 257.24,-169 257.24,-169"/>
<polygon fill="black" stroke="black" points="257.24,-165.5 247.24,-169 257.24,-172.5 257.24,-165.5"/>
</g>
<!-- MailjetProvider -->
<g id="node5" class="node">
<title>MailjetProvider</title>
<ellipse fill="#fdb462" stroke="black" cx="181" cy="-104" rx="72.37" ry="18"/>
<text text-anchor="middle" x="181" y="-99.8" font-family="Times,serif" font-size="14.00">MailjetProvider</text>
</g>
<!-- MailjetProvider&#45;&gt;MailModule -->
<g id="edge4" class="edge">
<title>MailjetProvider&#45;&gt;MailModule</title>
<path fill="none" stroke="black" d="M204,-121.08C204,-121.08 204,-140.9 204,-140.9"/>
<polygon fill="black" stroke="black" points="200.5,-140.9 204,-150.9 207.5,-140.9 200.5,-140.9"/>
</g>
</g>
</svg>
