<?xml version="1.0" encoding="UTF-8" standalone="no"?>
<!DOCTYPE svg PUBLIC "-//W3C//DTD SVG 1.1//EN"
 "http://www.w3.org/Graphics/SVG/1.1/DTD/svg11.dtd">
<!-- Generated by graphviz version 2.47.0 (20210316.0004)
 -->
<!-- Title: dependencies Pages: 1 -->
<svg width="753pt" height="284pt"
 viewBox="0.00 0.00 753.00 284.00" xmlns="http://www.w3.org/2000/svg" xmlns:xlink="http://www.w3.org/1999/xlink">
<g id="graph0" class="graph" transform="scale(1 1) rotate(0) translate(4 280)">
<title>dependencies</title>
<polygon fill="white" stroke="transparent" points="-4,4 -4,-280 749,-280 749,4 -4,4"/>
<text text-anchor="start" x="351.51" y="-42.4" font-family="Times-12" font-weight="bold" font-size="14.00">Legend</text>
<polygon fill="#ffffb3" stroke="transparent" points="138.5,-10 138.5,-30 158.5,-30 158.5,-10 138.5,-10"/>
<text text-anchor="start" x="162.13" y="-15.4" font-family="Times-12" font-size="14.00"> &#160;Declarations</text>
<polygon fill="#8dd3c7" stroke="transparent" points="251.5,-10 251.5,-30 271.5,-30 271.5,-10 251.5,-10"/>
<text text-anchor="start" x="275.23" y="-15.4" font-family="Times-12" font-size="14.00"> &#160;Module</text>
<polygon fill="#80b1d3" stroke="transparent" points="337.5,-10 337.5,-30 357.5,-30 357.5,-10 337.5,-10"/>
<text text-anchor="start" x="361.28" y="-15.4" font-family="Times-12" font-size="14.00"> &#160;Bootstrap</text>
<polygon fill="#fdb462" stroke="transparent" points="434.5,-10 434.5,-30 454.5,-30 454.5,-10 434.5,-10"/>
<text text-anchor="start" x="458.17" y="-15.4" font-family="Times-12" font-size="14.00"> &#160;Providers</text>
<polygon fill="#fb8072" stroke="transparent" points="530.5,-10 530.5,-30 550.5,-30 550.5,-10 530.5,-10"/>
<text text-anchor="start" x="554.23" y="-15.4" font-family="Times-12" font-size="14.00"> &#160;Exports</text>
<g id="clust1" class="cluster">
<title>cluster_AuthModule</title>
<polygon fill="none" stroke="black" stroke-dasharray="1,5" points="8,-70 8,-268 737,-268 737,-70 8,-70"/>
</g>
<g id="clust6" class="cluster">
<title>cluster_AuthModule_providers</title>
<polygon fill="none" stroke="black" points="16,-78 16,-130 729,-130 729,-78 16,-78"/>
</g>
<g id="clust4" class="cluster">
<title>cluster_AuthModule_exports</title>
<polygon fill="none" stroke="black" points="245,-208 245,-260 483,-260 483,-208 245,-208"/>
</g>
<!-- AuthService  -->
<g id="node1" class="node">
<title>AuthService </title>
<polygon fill="#fb8072" stroke="black" points="474.98,-252 385.02,-252 385.02,-216 474.98,-216 474.98,-252"/>
<text text-anchor="middle" x="430" y="-229.8" font-family="Times,serif" font-size="14.00">AuthService </text>
</g>
<!-- HashingProvider  -->
<g id="node2" class="node">
<title>HashingProvider </title>
<polygon fill="#fb8072" stroke="black" points="367.37,-252 252.63,-252 252.63,-216 367.37,-216 367.37,-252"/>
<text text-anchor="middle" x="310" y="-229.8" font-family="Times,serif" font-size="14.00">HashingProvider </text>
</g>
<!-- AuthModule -->
<g id="node3" class="node">
<title>AuthModule</title>
<polygon fill="#8dd3c7" stroke="black" points="413.55,-187 410.55,-191 389.55,-191 386.55,-187 326.45,-187 326.45,-151 413.55,-151 413.55,-187"/>
<text text-anchor="middle" x="370" y="-164.8" font-family="Times,serif" font-size="14.00">AuthModule</text>
</g>
<!-- AuthModule&#45;&gt;AuthService  -->
<g id="edge1" class="edge">
<title>AuthModule&#45;&gt;AuthService </title>
<path fill="none" stroke="black" stroke-dasharray="5,2" d="M399.52,-187.11C399.52,-187.11 399.52,-205.99 399.52,-205.99"/>
<polygon fill="black" stroke="black" points="396.02,-205.99 399.52,-215.99 403.02,-205.99 396.02,-205.99"/>
</g>
<!-- AuthModule&#45;&gt;HashingProvider  -->
<g id="edge2" class="edge">
<title>AuthModule&#45;&gt;HashingProvider </title>
<path fill="none" stroke="black" stroke-dasharray="5,2" d="M346.7,-187.11C346.7,-187.11 346.7,-205.99 346.7,-205.99"/>
<polygon fill="black" stroke="black" points="343.2,-205.99 346.7,-215.99 350.2,-205.99 343.2,-205.99"/>
</g>
<!-- AuthService -->
<g id="node4" class="node">
<title>AuthService</title>
<ellipse fill="#fdb462" stroke="black" cx="662" cy="-104" rx="59.11" ry="18"/>
<text text-anchor="middle" x="662" y="-99.8" font-family="Times,serif" font-size="14.00">AuthService</text>
</g>
<!-- AuthService&#45;&gt;AuthModule -->
<g id="edge3" class="edge">
<title>AuthService&#45;&gt;AuthModule</title>
<path fill="none" stroke="black" d="M662,-122.11C662,-141.34 662,-169 662,-169 662,-169 423.72,-169 423.72,-169"/>
<polygon fill="black" stroke="black" points="423.72,-165.5 413.72,-169 423.72,-172.5 423.72,-165.5"/>
</g>
<!-- GenerateTokensProvider -->
<g id="node5" class="node">
<title>GenerateTokensProvider</title>
<ellipse fill="#fdb462" stroke="black" cx="477" cy="-104" rx="107.63" ry="18"/>
<text text-anchor="middle" x="477" y="-99.8" font-family="Times,serif" font-size="14.00">GenerateTokensProvider</text>
</g>
<!-- GenerateTokensProvider&#45;&gt;AuthModule -->
<g id="edge4" class="edge">
<title>GenerateTokensProvider&#45;&gt;AuthModule</title>
<path fill="none" stroke="black" d="M391.61,-115.03C391.61,-115.03 391.61,-140.78 391.61,-140.78"/>
<polygon fill="black" stroke="black" points="388.11,-140.78 391.61,-150.78 395.11,-140.78 388.11,-140.78"/>
</g>
<!-- GoogleAuthService -->
<g id="node6" class="node">
<title>GoogleAuthService</title>
<ellipse fill="#fdb462" stroke="black" cx="264" cy="-104" rx="87.96" ry="18"/>
<text text-anchor="middle" x="264" y="-99.8" font-family="Times,serif" font-size="14.00">GoogleAuthService</text>
</g>
<!-- GoogleAuthService&#45;&gt;AuthModule -->
<g id="edge5" class="edge">
<title>GoogleAuthService&#45;&gt;AuthModule</title>
<path fill="none" stroke="black" d="M338.98,-113.59C338.98,-113.59 338.98,-140.75 338.98,-140.75"/>
<polygon fill="black" stroke="black" points="335.48,-140.75 338.98,-150.75 342.48,-140.75 335.48,-140.75"/>
</g>
<!-- LoginProvider -->
<g id="node7" class="node">
<title>LoginProvider</title>
<ellipse fill="#fdb462" stroke="black" cx="91" cy="-104" rx="67.22" ry="18"/>
<text text-anchor="middle" x="91" y="-99.8" font-family="Times,serif" font-size="14.00">LoginProvider</text>
</g>
<!-- LoginProvider&#45;&gt;AuthModule -->
<g id="edge6" class="edge">
<title>LoginProvider&#45;&gt;AuthModule</title>
<path fill="none" stroke="black" d="M91,-122.11C91,-141.34 91,-169 91,-169 91,-169 316.41,-169 316.41,-169"/>
<polygon fill="black" stroke="black" points="316.41,-172.5 326.41,-169 316.41,-165.5 316.41,-172.5"/>
</g>
</g>
</svg>
