<?xml version="1.0" encoding="UTF-8" standalone="no"?>
<!DOCTYPE svg PUBLIC "-//W3C//DTD SVG 1.1//EN"
 "http://www.w3.org/Graphics/SVG/1.1/DTD/svg11.dtd">
<!-- Generated by graphviz version 2.47.0 (20210316.0004)
 -->
<!-- Title: dependencies Pages: 1 -->
<svg width="504pt" height="284pt"
 viewBox="0.00 0.00 504.00 284.00" xmlns="http://www.w3.org/2000/svg" xmlns:xlink="http://www.w3.org/1999/xlink">
<g id="graph0" class="graph" transform="scale(1 1) rotate(0) translate(4 280)">
<title>dependencies</title>
<polygon fill="white" stroke="transparent" points="-4,4 -4,-280 500,-280 500,4 -4,4"/>
<text text-anchor="start" x="227.01" y="-42.4" font-family="Times-12" font-weight="bold" font-size="14.00">Legend</text>
<polygon fill="#ffffb3" stroke="transparent" points="14,-10 14,-30 34,-30 34,-10 14,-10"/>
<text text-anchor="start" x="37.63" y="-15.4" font-family="Times-12" font-size="14.00"> &#160;Declarations</text>
<polygon fill="#8dd3c7" stroke="transparent" points="127,-10 127,-30 147,-30 147,-10 127,-10"/>
<text text-anchor="start" x="150.73" y="-15.4" font-family="Times-12" font-size="14.00"> &#160;Module</text>
<polygon fill="#80b1d3" stroke="transparent" points="213,-10 213,-30 233,-30 233,-10 213,-10"/>
<text text-anchor="start" x="236.78" y="-15.4" font-family="Times-12" font-size="14.00"> &#160;Bootstrap</text>
<polygon fill="#fdb462" stroke="transparent" points="310,-10 310,-30 330,-30 330,-10 310,-10"/>
<text text-anchor="start" x="333.67" y="-15.4" font-family="Times-12" font-size="14.00"> &#160;Providers</text>
<polygon fill="#fb8072" stroke="transparent" points="406,-10 406,-30 426,-30 426,-10 406,-10"/>
<text text-anchor="start" x="429.73" y="-15.4" font-family="Times-12" font-size="14.00"> &#160;Exports</text>
<g id="clust1" class="cluster">
<title>cluster_ItemsModule</title>
<polygon fill="none" stroke="black" stroke-dasharray="1,5" points="99,-70 99,-268 397,-268 397,-70 99,-70"/>
</g>
<g id="clust3" class="cluster">
<title>cluster_ItemsModule_imports</title>
<polygon fill="none" stroke="black" points="253,-78 253,-130 389,-130 389,-78 253,-78"/>
</g>
<g id="clust6" class="cluster">
<title>cluster_ItemsModule_providers</title>
<polygon fill="none" stroke="black" points="107,-78 107,-130 245,-130 245,-78 107,-78"/>
</g>
<g id="clust4" class="cluster">
<title>cluster_ItemsModule_exports</title>
<polygon fill="none" stroke="black" points="194,-208 194,-260 302,-260 302,-208 194,-208"/>
</g>
<!-- PaginationModule -->
<g id="node1" class="node">
<title>PaginationModule</title>
<polygon fill="#8dd3c7" stroke="black" points="380.93,-122 377.93,-126 356.93,-126 353.93,-122 261.07,-122 261.07,-86 380.93,-86 380.93,-122"/>
<text text-anchor="middle" x="321" y="-99.8" font-family="Times,serif" font-size="14.00">PaginationModule</text>
</g>
<!-- ItemsModule -->
<g id="node2" class="node">
<title>ItemsModule</title>
<polygon fill="#8dd3c7" stroke="black" points="293.15,-187 290.15,-191 269.15,-191 266.15,-187 202.85,-187 202.85,-151 293.15,-151 293.15,-187"/>
<text text-anchor="middle" x="248" y="-164.8" font-family="Times,serif" font-size="14.00">ItemsModule</text>
</g>
<!-- PaginationModule&#45;&gt;ItemsModule -->
<g id="edge1" class="edge">
<title>PaginationModule&#45;&gt;ItemsModule</title>
<path fill="none" stroke="black" d="M277.3,-122.11C277.3,-122.11 277.3,-140.99 277.3,-140.99"/>
<polygon fill="black" stroke="black" points="273.8,-140.99 277.3,-150.99 280.8,-140.99 273.8,-140.99"/>
</g>
<!-- ItemsService  -->
<g id="node3" class="node">
<title>ItemsService </title>
<polygon fill="#fb8072" stroke="black" points="294.08,-252 201.92,-252 201.92,-216 294.08,-216 294.08,-252"/>
<text text-anchor="middle" x="248" y="-229.8" font-family="Times,serif" font-size="14.00">ItemsService </text>
</g>
<!-- ItemsModule&#45;&gt;ItemsService  -->
<g id="edge2" class="edge">
<title>ItemsModule&#45;&gt;ItemsService </title>
<path fill="none" stroke="black" stroke-dasharray="5,2" d="M248,-187.11C248,-187.11 248,-205.99 248,-205.99"/>
<polygon fill="black" stroke="black" points="244.5,-205.99 248,-215.99 251.5,-205.99 244.5,-205.99"/>
</g>
<!-- ItemsService -->
<g id="node4" class="node">
<title>ItemsService</title>
<ellipse fill="#fdb462" stroke="black" cx="176" cy="-104" rx="61.39" ry="18"/>
<text text-anchor="middle" x="176" y="-99.8" font-family="Times,serif" font-size="14.00">ItemsService</text>
</g>
<!-- ItemsService&#45;&gt;ItemsModule -->
<g id="edge3" class="edge">
<title>ItemsService&#45;&gt;ItemsModule</title>
<path fill="none" stroke="black" d="M220.06,-116.84C220.06,-116.84 220.06,-140.52 220.06,-140.52"/>
<polygon fill="black" stroke="black" points="216.56,-140.52 220.06,-150.52 223.56,-140.52 216.56,-140.52"/>
</g>
</g>
</svg>
