<?xml version="1.0" encoding="UTF-8" standalone="no"?>
<!DOCTYPE svg PUBLIC "-//W3C//DTD SVG 1.1//EN"
 "http://www.w3.org/Graphics/SVG/1.1/DTD/svg11.dtd">
<!-- Generated by graphviz version 2.47.0 (20210316.0004)
 -->
<!-- Title: dependencies Pages: 1 -->
<svg width="551pt" height="284pt"
 viewBox="0.00 0.00 551.00 284.00" xmlns="http://www.w3.org/2000/svg" xmlns:xlink="http://www.w3.org/1999/xlink">
<g id="graph0" class="graph" transform="scale(1 1) rotate(0) translate(4 280)">
<title>dependencies</title>
<polygon fill="white" stroke="transparent" points="-4,4 -4,-280 547,-280 547,4 -4,4"/>
<text text-anchor="start" x="250.51" y="-42.4" font-family="Times-12" font-weight="bold" font-size="14.00">Legend</text>
<polygon fill="#ffffb3" stroke="transparent" points="37.5,-10 37.5,-30 57.5,-30 57.5,-10 37.5,-10"/>
<text text-anchor="start" x="61.13" y="-15.4" font-family="Times-12" font-size="14.00"> &#160;Declarations</text>
<polygon fill="#8dd3c7" stroke="transparent" points="150.5,-10 150.5,-30 170.5,-30 170.5,-10 150.5,-10"/>
<text text-anchor="start" x="174.23" y="-15.4" font-family="Times-12" font-size="14.00"> &#160;Module</text>
<polygon fill="#80b1d3" stroke="transparent" points="236.5,-10 236.5,-30 256.5,-30 256.5,-10 236.5,-10"/>
<text text-anchor="start" x="260.28" y="-15.4" font-family="Times-12" font-size="14.00"> &#160;Bootstrap</text>
<polygon fill="#fdb462" stroke="transparent" points="333.5,-10 333.5,-30 353.5,-30 353.5,-10 333.5,-10"/>
<text text-anchor="start" x="357.17" y="-15.4" font-family="Times-12" font-size="14.00"> &#160;Providers</text>
<polygon fill="#fb8072" stroke="transparent" points="429.5,-10 429.5,-30 449.5,-30 449.5,-10 429.5,-10"/>
<text text-anchor="start" x="453.23" y="-15.4" font-family="Times-12" font-size="14.00"> &#160;Exports</text>
<g id="clust1" class="cluster">
<title>cluster_ClaimsModule</title>
<polygon fill="none" stroke="black" stroke-dasharray="1,5" points="8,-70 8,-268 535,-268 535,-70 8,-70"/>
</g>
<g id="clust6" class="cluster">
<title>cluster_ClaimsModule_providers</title>
<polygon fill="none" stroke="black" points="377,-78 377,-130 527,-130 527,-78 377,-78"/>
</g>
<g id="clust3" class="cluster">
<title>cluster_ClaimsModule_imports</title>
<polygon fill="none" stroke="black" points="16,-78 16,-130 369,-130 369,-78 16,-78"/>
</g>
<g id="clust4" class="cluster">
<title>cluster_ClaimsModule_exports</title>
<polygon fill="none" stroke="black" points="195,-208 195,-260 313,-260 313,-208 195,-208"/>
</g>
<!-- ItemsModule -->
<g id="node1" class="node">
<title>ItemsModule</title>
<polygon fill="#8dd3c7" stroke="black" points="361.15,-122 358.15,-126 337.15,-126 334.15,-122 270.85,-122 270.85,-86 361.15,-86 361.15,-122"/>
<text text-anchor="middle" x="316" y="-99.8" font-family="Times,serif" font-size="14.00">ItemsModule</text>
</g>
<!-- ClaimsModule -->
<g id="node4" class="node">
<title>ClaimsModule</title>
<polygon fill="#8dd3c7" stroke="black" points="303.72,-187 300.72,-191 279.72,-191 276.72,-187 204.28,-187 204.28,-151 303.72,-151 303.72,-187"/>
<text text-anchor="middle" x="254" y="-164.8" font-family="Times,serif" font-size="14.00">ClaimsModule</text>
</g>
<!-- ItemsModule&#45;&gt;ClaimsModule -->
<g id="edge1" class="edge">
<title>ItemsModule&#45;&gt;ClaimsModule</title>
<path fill="none" stroke="black" d="M287.14,-122.11C287.14,-122.11 287.14,-140.99 287.14,-140.99"/>
<polygon fill="black" stroke="black" points="283.64,-140.99 287.14,-150.99 290.64,-140.99 283.64,-140.99"/>
</g>
<!-- PaginationModule -->
<g id="node2" class="node">
<title>PaginationModule</title>
<polygon fill="#8dd3c7" stroke="black" points="252.93,-122 249.93,-126 228.93,-126 225.93,-122 133.07,-122 133.07,-86 252.93,-86 252.93,-122"/>
<text text-anchor="middle" x="193" y="-99.8" font-family="Times,serif" font-size="14.00">PaginationModule</text>
</g>
<!-- PaginationModule&#45;&gt;ClaimsModule -->
<g id="edge2" class="edge">
<title>PaginationModule&#45;&gt;ClaimsModule</title>
<path fill="none" stroke="black" d="M228.55,-122.11C228.55,-122.11 228.55,-140.99 228.55,-140.99"/>
<polygon fill="black" stroke="black" points="225.05,-140.99 228.55,-150.99 232.05,-140.99 225.05,-140.99"/>
</g>
<!-- UsersModule -->
<g id="node3" class="node">
<title>UsersModule</title>
<polygon fill="#8dd3c7" stroke="black" points="115.92,-122 112.92,-126 91.92,-126 88.92,-122 24.08,-122 24.08,-86 115.92,-86 115.92,-122"/>
<text text-anchor="middle" x="70" y="-99.8" font-family="Times,serif" font-size="14.00">UsersModule</text>
</g>
<!-- UsersModule&#45;&gt;ClaimsModule -->
<g id="edge3" class="edge">
<title>UsersModule&#45;&gt;ClaimsModule</title>
<path fill="none" stroke="black" d="M70,-122.11C70,-141.34 70,-169 70,-169 70,-169 194.21,-169 194.21,-169"/>
<polygon fill="black" stroke="black" points="194.21,-172.5 204.21,-169 194.21,-165.5 194.21,-172.5"/>
</g>
<!-- ClaimsService  -->
<g id="node5" class="node">
<title>ClaimsService </title>
<polygon fill="#fb8072" stroke="black" points="304.65,-252 203.35,-252 203.35,-216 304.65,-216 304.65,-252"/>
<text text-anchor="middle" x="254" y="-229.8" font-family="Times,serif" font-size="14.00">ClaimsService </text>
</g>
<!-- ClaimsModule&#45;&gt;ClaimsService  -->
<g id="edge4" class="edge">
<title>ClaimsModule&#45;&gt;ClaimsService </title>
<path fill="none" stroke="black" stroke-dasharray="5,2" d="M254,-187.11C254,-187.11 254,-205.99 254,-205.99"/>
<polygon fill="black" stroke="black" points="250.5,-205.99 254,-215.99 257.5,-205.99 250.5,-205.99"/>
</g>
<!-- ClaimsService -->
<g id="node6" class="node">
<title>ClaimsService</title>
<ellipse fill="#fdb462" stroke="black" cx="452" cy="-104" rx="67.21" ry="18"/>
<text text-anchor="middle" x="452" y="-99.8" font-family="Times,serif" font-size="14.00">ClaimsService</text>
</g>
<!-- ClaimsService&#45;&gt;ClaimsModule -->
<g id="edge5" class="edge">
<title>ClaimsService&#45;&gt;ClaimsModule</title>
<path fill="none" stroke="black" d="M452,-122.11C452,-141.34 452,-169 452,-169 452,-169 313.71,-169 313.71,-169"/>
<polygon fill="black" stroke="black" points="313.71,-165.5 303.71,-169 313.71,-172.5 313.71,-165.5"/>
</g>
</g>
</svg>
