<?xml version="1.0" encoding="UTF-8" standalone="no"?>
<!DOCTYPE svg PUBLIC "-//W3C//DTD SVG 1.1//EN"
 "http://www.w3.org/Graphics/SVG/1.1/DTD/svg11.dtd">
<!-- Generated by graphviz version 2.47.0 (20210316.0004)
 -->
<!-- Title: dependencies Pages: 1 -->
<svg width="504pt" height="284pt"
 viewBox="0.00 0.00 504.00 284.00" xmlns="http://www.w3.org/2000/svg" xmlns:xlink="http://www.w3.org/1999/xlink">
<g id="graph0" class="graph" transform="scale(1 1) rotate(0) translate(4 280)">
<title>dependencies</title>
<polygon fill="white" stroke="transparent" points="-4,4 -4,-280 500,-280 500,4 -4,4"/>
<text text-anchor="start" x="227.01" y="-42.4" font-family="Times-12" font-weight="bold" font-size="14.00">Legend</text>
<polygon fill="#ffffb3" stroke="transparent" points="14,-10 14,-30 34,-30 34,-10 14,-10"/>
<text text-anchor="start" x="37.63" y="-15.4" font-family="Times-12" font-size="14.00"> &#160;Declarations</text>
<polygon fill="#8dd3c7" stroke="transparent" points="127,-10 127,-30 147,-30 147,-10 127,-10"/>
<text text-anchor="start" x="150.73" y="-15.4" font-family="Times-12" font-size="14.00"> &#160;Module</text>
<polygon fill="#80b1d3" stroke="transparent" points="213,-10 213,-30 233,-30 233,-10 213,-10"/>
<text text-anchor="start" x="236.78" y="-15.4" font-family="Times-12" font-size="14.00"> &#160;Bootstrap</text>
<polygon fill="#fdb462" stroke="transparent" points="310,-10 310,-30 330,-30 330,-10 310,-10"/>
<text text-anchor="start" x="333.67" y="-15.4" font-family="Times-12" font-size="14.00"> &#160;Providers</text>
<polygon fill="#fb8072" stroke="transparent" points="406,-10 406,-30 426,-30 426,-10 406,-10"/>
<text text-anchor="start" x="429.73" y="-15.4" font-family="Times-12" font-size="14.00"> &#160;Exports</text>
<g id="clust1" class="cluster">
<title>cluster_ClaimsModule</title>
<polygon fill="none" stroke="black" stroke-dasharray="1,5" points="93,-70 93,-268 403,-268 403,-70 93,-70"/>
</g>
<g id="clust3" class="cluster">
<title>cluster_ClaimsModule_imports</title>
<polygon fill="none" stroke="black" points="259,-78 259,-130 395,-130 395,-78 259,-78"/>
</g>
<g id="clust4" class="cluster">
<title>cluster_ClaimsModule_exports</title>
<polygon fill="none" stroke="black" points="192,-208 192,-260 310,-260 310,-208 192,-208"/>
</g>
<g id="clust6" class="cluster">
<title>cluster_ClaimsModule_providers</title>
<polygon fill="none" stroke="black" points="101,-78 101,-130 251,-130 251,-78 101,-78"/>
</g>
<!-- PaginationModule -->
<g id="node1" class="node">
<title>PaginationModule</title>
<polygon fill="#8dd3c7" stroke="black" points="386.93,-122 383.93,-126 362.93,-126 359.93,-122 267.07,-122 267.07,-86 386.93,-86 386.93,-122"/>
<text text-anchor="middle" x="327" y="-99.8" font-family="Times,serif" font-size="14.00">PaginationModule</text>
</g>
<!-- ClaimsModule -->
<g id="node2" class="node">
<title>ClaimsModule</title>
<polygon fill="#8dd3c7" stroke="black" points="300.72,-187 297.72,-191 276.72,-191 273.72,-187 201.28,-187 201.28,-151 300.72,-151 300.72,-187"/>
<text text-anchor="middle" x="251" y="-164.8" font-family="Times,serif" font-size="14.00">ClaimsModule</text>
</g>
<!-- PaginationModule&#45;&gt;ClaimsModule -->
<g id="edge1" class="edge">
<title>PaginationModule&#45;&gt;ClaimsModule</title>
<path fill="none" stroke="black" d="M283.95,-122.11C283.95,-122.11 283.95,-140.99 283.95,-140.99"/>
<polygon fill="black" stroke="black" points="280.45,-140.99 283.95,-150.99 287.45,-140.99 280.45,-140.99"/>
</g>
<!-- ClaimsService  -->
<g id="node3" class="node">
<title>ClaimsService </title>
<polygon fill="#fb8072" stroke="black" points="301.65,-252 200.35,-252 200.35,-216 301.65,-216 301.65,-252"/>
<text text-anchor="middle" x="251" y="-229.8" font-family="Times,serif" font-size="14.00">ClaimsService </text>
</g>
<!-- ClaimsModule&#45;&gt;ClaimsService  -->
<g id="edge2" class="edge">
<title>ClaimsModule&#45;&gt;ClaimsService </title>
<path fill="none" stroke="black" stroke-dasharray="5,2" d="M251,-187.11C251,-187.11 251,-205.99 251,-205.99"/>
<polygon fill="black" stroke="black" points="247.5,-205.99 251,-215.99 254.5,-205.99 247.5,-205.99"/>
</g>
<!-- ClaimsService -->
<g id="node4" class="node">
<title>ClaimsService</title>
<ellipse fill="#fdb462" stroke="black" cx="176" cy="-104" rx="67.21" ry="18"/>
<text text-anchor="middle" x="176" y="-99.8" font-family="Times,serif" font-size="14.00">ClaimsService</text>
</g>
<!-- ClaimsService&#45;&gt;ClaimsModule -->
<g id="edge3" class="edge">
<title>ClaimsService&#45;&gt;ClaimsModule</title>
<path fill="none" stroke="black" d="M222.37,-117.15C222.37,-117.15 222.37,-140.69 222.37,-140.69"/>
<polygon fill="black" stroke="black" points="218.87,-140.69 222.37,-150.69 225.87,-140.69 218.87,-140.69"/>
</g>
</g>
</svg>
