<?xml version="1.0" encoding="UTF-8" standalone="no"?>
<!DOCTYPE svg PUBLIC "-//W3C//DTD SVG 1.1//EN"
 "http://www.w3.org/Graphics/SVG/1.1/DTD/svg11.dtd">
<!-- Generated by graphviz version 2.47.0 (20210316.0004)
 -->
<!-- Title: dependencies Pages: 1 -->
<svg width="849pt" height="211pt"
 viewBox="0.00 0.00 849.00 211.00" xmlns="http://www.w3.org/2000/svg" xmlns:xlink="http://www.w3.org/1999/xlink">
<g id="graph0" class="graph" transform="scale(1 1) rotate(0) translate(4 207)">
<title>dependencies</title>
<polygon fill="white" stroke="transparent" points="-4,4 -4,-207 845,-207 845,4 -4,4"/>
<text text-anchor="start" x="399.51" y="-42.4" font-family="Times-12" font-weight="bold" font-size="14.00">Legend</text>
<polygon fill="#ffffb3" stroke="transparent" points="186.5,-10 186.5,-30 206.5,-30 206.5,-10 186.5,-10"/>
<text text-anchor="start" x="210.13" y="-15.4" font-family="Times-12" font-size="14.00"> &#160;Declarations</text>
<polygon fill="#8dd3c7" stroke="transparent" points="299.5,-10 299.5,-30 319.5,-30 319.5,-10 299.5,-10"/>
<text text-anchor="start" x="323.23" y="-15.4" font-family="Times-12" font-size="14.00"> &#160;Module</text>
<polygon fill="#80b1d3" stroke="transparent" points="385.5,-10 385.5,-30 405.5,-30 405.5,-10 385.5,-10"/>
<text text-anchor="start" x="409.28" y="-15.4" font-family="Times-12" font-size="14.00"> &#160;Bootstrap</text>
<polygon fill="#fdb462" stroke="transparent" points="482.5,-10 482.5,-30 502.5,-30 502.5,-10 482.5,-10"/>
<text text-anchor="start" x="506.17" y="-15.4" font-family="Times-12" font-size="14.00"> &#160;Providers</text>
<polygon fill="#fb8072" stroke="transparent" points="578.5,-10 578.5,-30 598.5,-30 598.5,-10 578.5,-10"/>
<text text-anchor="start" x="602.23" y="-15.4" font-family="Times-12" font-size="14.00"> &#160;Exports</text>
<g id="clust1" class="cluster">
<title>cluster_AdminModule</title>
<polygon fill="none" stroke="black" stroke-dasharray="1,5" points="8,-70 8,-195 833,-195 833,-70 8,-70"/>
</g>
<g id="clust3" class="cluster">
<title>cluster_AdminModule_imports</title>
<polygon fill="none" stroke="black" points="354,-78 354,-130 825,-130 825,-78 354,-78"/>
</g>
<g id="clust6" class="cluster">
<title>cluster_AdminModule_providers</title>
<polygon fill="none" stroke="black" points="16,-78 16,-130 346,-130 346,-78 16,-78"/>
</g>
<!-- ClaimsModule -->
<g id="node1" class="node">
<title>ClaimsModule</title>
<polygon fill="#8dd3c7" stroke="black" points="816.72,-122 813.72,-126 792.72,-126 789.72,-122 717.28,-122 717.28,-86 816.72,-86 816.72,-122"/>
<text text-anchor="middle" x="767" y="-99.8" font-family="Times,serif" font-size="14.00">ClaimsModule</text>
</g>
<!-- AdminModule -->
<g id="node5" class="node">
<title>AdminModule</title>
<polygon fill="#8dd3c7" stroke="black" points="518.44,-187 515.44,-191 494.44,-191 491.44,-187 419.56,-187 419.56,-151 518.44,-151 518.44,-187"/>
<text text-anchor="middle" x="469" y="-164.8" font-family="Times,serif" font-size="14.00">AdminModule</text>
</g>
<!-- ClaimsModule&#45;&gt;AdminModule -->
<g id="edge1" class="edge">
<title>ClaimsModule&#45;&gt;AdminModule</title>
<path fill="none" stroke="black" d="M767,-122.28C767,-143.32 767,-175 767,-175 767,-175 528.54,-175 528.54,-175"/>
<polygon fill="black" stroke="black" points="528.54,-171.5 518.54,-175 528.54,-178.5 528.54,-171.5"/>
</g>
<!-- ItemsModule -->
<g id="node2" class="node">
<title>ItemsModule</title>
<polygon fill="#8dd3c7" stroke="black" points="699.15,-122 696.15,-126 675.15,-126 672.15,-122 608.85,-122 608.85,-86 699.15,-86 699.15,-122"/>
<text text-anchor="middle" x="654" y="-99.8" font-family="Times,serif" font-size="14.00">ItemsModule</text>
</g>
<!-- ItemsModule&#45;&gt;AdminModule -->
<g id="edge2" class="edge">
<title>ItemsModule&#45;&gt;AdminModule</title>
<path fill="none" stroke="black" d="M654,-122.02C654,-139.37 654,-163 654,-163 654,-163 528.58,-163 528.58,-163"/>
<polygon fill="black" stroke="black" points="528.58,-159.5 518.58,-163 528.58,-166.5 528.58,-159.5"/>
</g>
<!-- PaginationModule -->
<g id="node3" class="node">
<title>PaginationModule</title>
<polygon fill="#8dd3c7" stroke="black" points="590.93,-122 587.93,-126 566.93,-126 563.93,-122 471.07,-122 471.07,-86 590.93,-86 590.93,-122"/>
<text text-anchor="middle" x="531" y="-99.8" font-family="Times,serif" font-size="14.00">PaginationModule</text>
</g>
<!-- PaginationModule&#45;&gt;AdminModule -->
<g id="edge3" class="edge">
<title>PaginationModule&#45;&gt;AdminModule</title>
<path fill="none" stroke="black" d="M494.75,-122.11C494.75,-122.11 494.75,-140.99 494.75,-140.99"/>
<polygon fill="black" stroke="black" points="491.25,-140.99 494.75,-150.99 498.25,-140.99 491.25,-140.99"/>
</g>
<!-- UsersModule -->
<g id="node4" class="node">
<title>UsersModule</title>
<polygon fill="#8dd3c7" stroke="black" points="453.92,-122 450.92,-126 429.92,-126 426.92,-122 362.08,-122 362.08,-86 453.92,-86 453.92,-122"/>
<text text-anchor="middle" x="408" y="-99.8" font-family="Times,serif" font-size="14.00">UsersModule</text>
</g>
<!-- UsersModule&#45;&gt;AdminModule -->
<g id="edge4" class="edge">
<title>UsersModule&#45;&gt;AdminModule</title>
<path fill="none" stroke="black" d="M436.75,-122.11C436.75,-122.11 436.75,-140.99 436.75,-140.99"/>
<polygon fill="black" stroke="black" points="433.25,-140.99 436.75,-150.99 440.25,-140.99 433.25,-140.99"/>
</g>
<!-- AdminService -->
<g id="node6" class="node">
<title>AdminService</title>
<ellipse fill="#fdb462" stroke="black" cx="271" cy="-104" rx="66.63" ry="18"/>
<text text-anchor="middle" x="271" y="-99.8" font-family="Times,serif" font-size="14.00">AdminService</text>
</g>
<!-- AdminService&#45;&gt;AdminModule -->
<g id="edge5" class="edge">
<title>AdminService&#45;&gt;AdminModule</title>
<path fill="none" stroke="black" d="M271,-122.02C271,-139.37 271,-163 271,-163 271,-163 409.55,-163 409.55,-163"/>
<polygon fill="black" stroke="black" points="409.55,-166.5 419.55,-163 409.55,-159.5 409.55,-166.5"/>
</g>
<!-- AnalyticsProvider -->
<g id="node7" class="node">
<title>AnalyticsProvider</title>
<ellipse fill="#fdb462" stroke="black" cx="105" cy="-104" rx="81.1" ry="18"/>
<text text-anchor="middle" x="105" y="-99.8" font-family="Times,serif" font-size="14.00">AnalyticsProvider</text>
</g>
<!-- AnalyticsProvider&#45;&gt;AdminModule -->
<g id="edge6" class="edge">
<title>AnalyticsProvider&#45;&gt;AdminModule</title>
<path fill="none" stroke="black" d="M105,-122.28C105,-143.32 105,-175 105,-175 105,-175 409.53,-175 409.53,-175"/>
<polygon fill="black" stroke="black" points="409.53,-178.5 419.53,-175 409.53,-171.5 409.53,-178.5"/>
</g>
</g>
</svg>
