<?xml version="1.0" encoding="UTF-8" standalone="no"?>
<!DOCTYPE svg PUBLIC "-//W3C//DTD SVG 1.1//EN"
 "http://www.w3.org/Graphics/SVG/1.1/DTD/svg11.dtd">
<!-- Generated by graphviz version 2.47.0 (20210316.0004)
 -->
<!-- Title: dependencies Pages: 1 -->
<svg width="1099pt" height="211pt"
 viewBox="0.00 0.00 1099.00 211.00" xmlns="http://www.w3.org/2000/svg" xmlns:xlink="http://www.w3.org/1999/xlink">
<g id="graph0" class="graph" transform="scale(1 1) rotate(0) translate(4 207)">
<title>dependencies</title>
<polygon fill="white" stroke="transparent" points="-4,4 -4,-207 1095,-207 1095,4 -4,4"/>
<text text-anchor="start" x="524.51" y="-42.4" font-family="Times-12" font-weight="bold" font-size="14.00">Legend</text>
<polygon fill="#ffffb3" stroke="transparent" points="311.5,-10 311.5,-30 331.5,-30 331.5,-10 311.5,-10"/>
<text text-anchor="start" x="335.13" y="-15.4" font-family="Times-12" font-size="14.00"> &#160;Declarations</text>
<polygon fill="#8dd3c7" stroke="transparent" points="424.5,-10 424.5,-30 444.5,-30 444.5,-10 424.5,-10"/>
<text text-anchor="start" x="448.23" y="-15.4" font-family="Times-12" font-size="14.00"> &#160;Module</text>
<polygon fill="#80b1d3" stroke="transparent" points="510.5,-10 510.5,-30 530.5,-30 530.5,-10 510.5,-10"/>
<text text-anchor="start" x="534.28" y="-15.4" font-family="Times-12" font-size="14.00"> &#160;Bootstrap</text>
<polygon fill="#fdb462" stroke="transparent" points="607.5,-10 607.5,-30 627.5,-30 627.5,-10 607.5,-10"/>
<text text-anchor="start" x="631.17" y="-15.4" font-family="Times-12" font-size="14.00"> &#160;Providers</text>
<polygon fill="#fb8072" stroke="transparent" points="703.5,-10 703.5,-30 723.5,-30 723.5,-10 703.5,-10"/>
<text text-anchor="start" x="727.23" y="-15.4" font-family="Times-12" font-size="14.00"> &#160;Exports</text>
<g id="clust1" class="cluster">
<title>cluster_AppModule</title>
<polygon fill="none" stroke="black" stroke-dasharray="1,5" points="8,-70 8,-195 1083,-195 1083,-70 8,-70"/>
</g>
<g id="clust6" class="cluster">
<title>cluster_AppModule_providers</title>
<polygon fill="none" stroke="black" points="945,-78 945,-130 1075,-130 1075,-78 945,-78"/>
</g>
<g id="clust3" class="cluster">
<title>cluster_AppModule_imports</title>
<polygon fill="none" stroke="black" points="16,-78 16,-130 937,-130 937,-78 16,-78"/>
</g>
<!-- AdminModule -->
<g id="node1" class="node">
<title>AdminModule</title>
<polygon fill="#8dd3c7" stroke="black" points="929.44,-122 926.44,-126 905.44,-126 902.44,-122 830.56,-122 830.56,-86 929.44,-86 929.44,-122"/>
<text text-anchor="middle" x="880" y="-99.8" font-family="Times,serif" font-size="14.00">AdminModule</text>
</g>
<!-- AppModule -->
<g id="node9" class="node">
<title>AppModule</title>
<polygon fill="#8dd3c7" stroke="black" points="586.66,-187 583.66,-191 562.66,-191 559.66,-187 503.34,-187 503.34,-151 586.66,-151 586.66,-187"/>
<text text-anchor="middle" x="545" y="-164.8" font-family="Times,serif" font-size="14.00">AppModule</text>
</g>
<!-- AdminModule&#45;&gt;AppModule -->
<g id="edge1" class="edge">
<title>AdminModule&#45;&gt;AppModule</title>
<path fill="none" stroke="black" d="M880,-122.13C880,-142.57 880,-173 880,-173 880,-173 596.75,-173 596.75,-173"/>
<polygon fill="black" stroke="black" points="596.75,-169.5 586.75,-173 596.75,-176.5 596.75,-169.5"/>
</g>
<!-- AuthModule -->
<g id="node2" class="node">
<title>AuthModule</title>
<polygon fill="#8dd3c7" stroke="black" points="812.55,-122 809.55,-126 788.55,-126 785.55,-122 725.45,-122 725.45,-86 812.55,-86 812.55,-122"/>
<text text-anchor="middle" x="769" y="-99.8" font-family="Times,serif" font-size="14.00">AuthModule</text>
</g>
<!-- AuthModule&#45;&gt;AppModule -->
<g id="edge2" class="edge">
<title>AuthModule&#45;&gt;AppModule</title>
<path fill="none" stroke="black" d="M769,-122.27C769,-140.56 769,-166 769,-166 769,-166 596.87,-166 596.87,-166"/>
<polygon fill="black" stroke="black" points="596.87,-162.5 586.87,-166 596.87,-169.5 596.87,-162.5"/>
</g>
<!-- ClaimsModule -->
<g id="node3" class="node">
<title>ClaimsModule</title>
<polygon fill="#8dd3c7" stroke="black" points="707.72,-122 704.72,-126 683.72,-126 680.72,-122 608.28,-122 608.28,-86 707.72,-86 707.72,-122"/>
<text text-anchor="middle" x="658" y="-99.8" font-family="Times,serif" font-size="14.00">ClaimsModule</text>
</g>
<!-- ClaimsModule&#45;&gt;AppModule -->
<g id="edge3" class="edge">
<title>ClaimsModule&#45;&gt;AppModule</title>
<path fill="none" stroke="black" d="M658,-122.01C658,-138.05 658,-159 658,-159 658,-159 596.76,-159 596.76,-159"/>
<polygon fill="black" stroke="black" points="596.76,-155.5 586.76,-159 596.76,-162.5 596.76,-155.5"/>
</g>
<!-- ItemsModule -->
<g id="node4" class="node">
<title>ItemsModule</title>
<polygon fill="#8dd3c7" stroke="black" points="590.15,-122 587.15,-126 566.15,-126 563.15,-122 499.85,-122 499.85,-86 590.15,-86 590.15,-122"/>
<text text-anchor="middle" x="545" y="-99.8" font-family="Times,serif" font-size="14.00">ItemsModule</text>
</g>
<!-- ItemsModule&#45;&gt;AppModule -->
<g id="edge4" class="edge">
<title>ItemsModule&#45;&gt;AppModule</title>
<path fill="none" stroke="black" d="M545,-122.11C545,-122.11 545,-140.99 545,-140.99"/>
<polygon fill="black" stroke="black" points="541.5,-140.99 545,-150.99 548.5,-140.99 541.5,-140.99"/>
</g>
<!-- MailModule -->
<g id="node5" class="node">
<title>MailModule</title>
<polygon fill="#8dd3c7" stroke="black" points="481.99,-122 478.99,-126 457.99,-126 454.99,-122 396.01,-122 396.01,-86 481.99,-86 481.99,-122"/>
<text text-anchor="middle" x="439" y="-99.8" font-family="Times,serif" font-size="14.00">MailModule</text>
</g>
<!-- MailModule&#45;&gt;AppModule -->
<g id="edge5" class="edge">
<title>MailModule&#45;&gt;AppModule</title>
<path fill="none" stroke="black" d="M439,-122.01C439,-138.05 439,-159 439,-159 439,-159 493.11,-159 493.11,-159"/>
<polygon fill="black" stroke="black" points="493.11,-162.5 503.11,-159 493.11,-155.5 493.11,-162.5"/>
</g>
<!-- PaginationModule -->
<g id="node6" class="node">
<title>PaginationModule</title>
<polygon fill="#8dd3c7" stroke="black" points="377.93,-122 374.93,-126 353.93,-126 350.93,-122 258.07,-122 258.07,-86 377.93,-86 377.93,-122"/>
<text text-anchor="middle" x="318" y="-99.8" font-family="Times,serif" font-size="14.00">PaginationModule</text>
</g>
<!-- PaginationModule&#45;&gt;AppModule -->
<g id="edge6" class="edge">
<title>PaginationModule&#45;&gt;AppModule</title>
<path fill="none" stroke="black" d="M318,-122.27C318,-140.56 318,-166 318,-166 318,-166 493.1,-166 493.1,-166"/>
<polygon fill="black" stroke="black" points="493.1,-169.5 503.1,-166 493.1,-162.5 493.1,-169.5"/>
</g>
<!-- UploadsModule -->
<g id="node7" class="node">
<title>UploadsModule</title>
<polygon fill="#8dd3c7" stroke="black" points="240.21,-122 237.21,-126 216.21,-126 213.21,-122 133.79,-122 133.79,-86 240.21,-86 240.21,-122"/>
<text text-anchor="middle" x="187" y="-99.8" font-family="Times,serif" font-size="14.00">UploadsModule</text>
</g>
<!-- UploadsModule&#45;&gt;AppModule -->
<g id="edge7" class="edge">
<title>UploadsModule&#45;&gt;AppModule</title>
<path fill="none" stroke="black" d="M187,-122.13C187,-142.57 187,-173 187,-173 187,-173 493.23,-173 493.23,-173"/>
<polygon fill="black" stroke="black" points="493.23,-176.5 503.23,-173 493.23,-169.5 493.23,-176.5"/>
</g>
<!-- UsersModule -->
<g id="node8" class="node">
<title>UsersModule</title>
<polygon fill="#8dd3c7" stroke="black" points="115.92,-122 112.92,-126 91.92,-126 88.92,-122 24.08,-122 24.08,-86 115.92,-86 115.92,-122"/>
<text text-anchor="middle" x="70" y="-99.8" font-family="Times,serif" font-size="14.00">UsersModule</text>
</g>
<!-- UsersModule&#45;&gt;AppModule -->
<g id="edge8" class="edge">
<title>UsersModule&#45;&gt;AppModule</title>
<path fill="none" stroke="black" d="M70,-122.01C70,-144.49 70,-180 70,-180 70,-180 493.26,-180 493.26,-180"/>
<polygon fill="black" stroke="black" points="493.26,-183.5 503.26,-180 493.26,-176.5 493.26,-183.5"/>
</g>
<!-- AppService -->
<g id="node10" class="node">
<title>AppService</title>
<ellipse fill="#fdb462" stroke="black" cx="1010" cy="-104" rx="56.74" ry="18"/>
<text text-anchor="middle" x="1010" y="-99.8" font-family="Times,serif" font-size="14.00">AppService</text>
</g>
<!-- AppService&#45;&gt;AppModule -->
<g id="edge9" class="edge">
<title>AppService&#45;&gt;AppModule</title>
<path fill="none" stroke="black" d="M1010,-122.01C1010,-144.49 1010,-180 1010,-180 1010,-180 596.67,-180 596.67,-180"/>
<polygon fill="black" stroke="black" points="596.67,-176.5 586.67,-180 596.67,-183.5 596.67,-176.5"/>
</g>
</g>
</svg>
