<?xml version="1.0" encoding="UTF-8" standalone="no"?>
<!DOCTYPE svg PUBLIC "-//W3C//DTD SVG 1.1//EN"
 "http://www.w3.org/Graphics/SVG/1.1/DTD/svg11.dtd">
<!-- Generated by graphviz version 2.47.0 (20210316.0004)
 -->
<!-- Title: dependencies Pages: 1 -->
<svg width="1876pt" height="382pt"
 viewBox="0.00 0.00 1876.00 382.00" xmlns="http://www.w3.org/2000/svg" xmlns:xlink="http://www.w3.org/1999/xlink">
<g id="graph0" class="graph" transform="scale(1 1) rotate(0) translate(4 378)">
<title>dependencies</title>
<polygon fill="white" stroke="transparent" points="-4,4 -4,-378 1872,-378 1872,4 -4,4"/>
<text text-anchor="start" x="913.01" y="-42.4" font-family="Times-12" font-weight="bold" font-size="14.00">Legend</text>
<polygon fill="#ffffb3" stroke="transparent" points="700,-10 700,-30 720,-30 720,-10 700,-10"/>
<text text-anchor="start" x="723.63" y="-15.4" font-family="Times-12" font-size="14.00"> &#160;Declarations</text>
<polygon fill="#8dd3c7" stroke="transparent" points="813,-10 813,-30 833,-30 833,-10 813,-10"/>
<text text-anchor="start" x="836.73" y="-15.4" font-family="Times-12" font-size="14.00"> &#160;Module</text>
<polygon fill="#80b1d3" stroke="transparent" points="899,-10 899,-30 919,-30 919,-10 899,-10"/>
<text text-anchor="start" x="922.78" y="-15.4" font-family="Times-12" font-size="14.00"> &#160;Bootstrap</text>
<polygon fill="#fdb462" stroke="transparent" points="996,-10 996,-30 1016,-30 1016,-10 996,-10"/>
<text text-anchor="start" x="1019.67" y="-15.4" font-family="Times-12" font-size="14.00"> &#160;Providers</text>
<polygon fill="#fb8072" stroke="transparent" points="1092,-10 1092,-30 1112,-30 1112,-10 1092,-10"/>
<text text-anchor="start" x="1115.73" y="-15.4" font-family="Times-12" font-size="14.00"> &#160;Exports</text>
<g id="clust1" class="cluster">
<title>cluster_AppModule</title>
<polygon fill="none" stroke="black" stroke-dasharray="1,5" points="763,-146 763,-358 1282,-358 1282,-146 763,-146"/>
</g>
<g id="clust3" class="cluster">
<title>cluster_AppModule_imports</title>
<polygon fill="none" stroke="black" points="909,-154 909,-282 1242,-282 1242,-154 909,-154"/>
</g>
<g id="clust6" class="cluster">
<title>cluster_AppModule_providers</title>
<polygon fill="none" stroke="black" points="771,-230 771,-282 901,-282 901,-230 771,-230"/>
</g>
<g id="clust7" class="cluster">
<title>cluster_AuthModule</title>
<polygon fill="none" stroke="black" stroke-dasharray="1,5" points="736,-70 736,-138 1519,-138 1519,-70 736,-70"/>
</g>
<g id="clust10" class="cluster">
<title>cluster_AuthModule_exports</title>
<polygon fill="none" stroke="black" points="1273,-78 1273,-130 1511,-130 1511,-78 1273,-78"/>
</g>
<g id="clust12" class="cluster">
<title>cluster_AuthModule_providers</title>
<polygon fill="none" stroke="black" points="744,-78 744,-130 1265,-130 1265,-78 744,-78"/>
</g>
<g id="clust13" class="cluster">
<title>cluster_ClaimsModule</title>
<polygon fill="none" stroke="black" stroke-dasharray="1,5" points="1290,-298 1290,-366 1582,-366 1582,-298 1290,-298"/>
</g>
<g id="clust16" class="cluster">
<title>cluster_ClaimsModule_exports</title>
<polygon fill="none" stroke="black" points="1456,-306 1456,-358 1574,-358 1574,-306 1456,-306"/>
</g>
<g id="clust18" class="cluster">
<title>cluster_ClaimsModule_providers</title>
<polygon fill="none" stroke="black" points="1298,-306 1298,-358 1448,-358 1448,-306 1298,-306"/>
</g>
<g id="clust19" class="cluster">
<title>cluster_ItemsModule</title>
<polygon fill="none" stroke="black" stroke-dasharray="1,5" points="1590,-298 1590,-366 1860,-366 1860,-298 1590,-298"/>
</g>
<g id="clust22" class="cluster">
<title>cluster_ItemsModule_exports</title>
<polygon fill="none" stroke="black" points="1744,-306 1744,-358 1852,-358 1852,-306 1744,-306"/>
</g>
<g id="clust24" class="cluster">
<title>cluster_ItemsModule_providers</title>
<polygon fill="none" stroke="black" points="1598,-306 1598,-358 1736,-358 1736,-306 1598,-306"/>
</g>
<g id="clust25" class="cluster">
<title>cluster_PaginationModule</title>
<polygon fill="none" stroke="black" stroke-dasharray="1,5" points="1290,-222 1290,-290 1646,-290 1646,-222 1290,-222"/>
</g>
<g id="clust28" class="cluster">
<title>cluster_PaginationModule_exports</title>
<polygon fill="none" stroke="black" points="1494,-230 1494,-282 1638,-282 1638,-230 1494,-230"/>
</g>
<g id="clust30" class="cluster">
<title>cluster_PaginationModule_providers</title>
<polygon fill="none" stroke="black" points="1298,-230 1298,-282 1486,-282 1486,-230 1298,-230"/>
</g>
<g id="clust31" class="cluster">
<title>cluster_UsersModule</title>
<polygon fill="none" stroke="black" stroke-dasharray="1,5" points="8,-146 8,-214 755,-214 755,-146 8,-146"/>
</g>
<g id="clust34" class="cluster">
<title>cluster_UsersModule_exports</title>
<polygon fill="none" stroke="black" points="637,-154 637,-206 747,-206 747,-154 637,-154"/>
</g>
<g id="clust36" class="cluster">
<title>cluster_UsersModule_providers</title>
<polygon fill="none" stroke="black" points="16,-154 16,-206 629,-206 629,-154 16,-154"/>
</g>
<!-- AuthModule -->
<g id="node1" class="node">
<title>AuthModule</title>
<polygon fill="#8dd3c7" stroke="black" points="1233.55,-198 1230.55,-202 1209.55,-202 1206.55,-198 1146.45,-198 1146.45,-162 1233.55,-162 1233.55,-198"/>
<text text-anchor="middle" x="1190" y="-175.8" font-family="Times,serif" font-size="14.00">AuthModule</text>
</g>
<!-- AppModule -->
<g id="node6" class="node">
<title>AppModule</title>
<polygon fill="#8dd3c7" stroke="black" points="1173.66,-350 1170.66,-354 1149.66,-354 1146.66,-350 1090.34,-350 1090.34,-314 1173.66,-314 1173.66,-350"/>
<text text-anchor="middle" x="1132" y="-327.8" font-family="Times,serif" font-size="14.00">AppModule</text>
</g>
<!-- AuthModule&#45;&gt;AppModule -->
<g id="edge1" class="edge">
<title>AuthModule&#45;&gt;AppModule</title>
<path fill="none" stroke="black" d="M1146.06,-180C1140.22,-180 1136.2,-180 1136.2,-180 1136.2,-180 1136.2,-303.97 1136.2,-303.97"/>
<polygon fill="black" stroke="black" points="1132.7,-303.97 1136.2,-313.97 1139.7,-303.97 1132.7,-303.97"/>
</g>
<!-- AuthService  -->
<g id="node8" class="node">
<title>AuthService </title>
<polygon fill="#fb8072" stroke="black" points="1502.98,-122 1413.02,-122 1413.02,-86 1502.98,-86 1502.98,-122"/>
<text text-anchor="middle" x="1458" y="-99.8" font-family="Times,serif" font-size="14.00">AuthService </text>
</g>
<!-- AuthModule&#45;&gt;AuthService  -->
<g id="edge7" class="edge">
<title>AuthModule&#45;&gt;AuthService </title>
<path fill="none" stroke="black" stroke-dasharray="5,2" d="M1233.62,-186C1306.57,-186 1445.43,-186 1445.43,-186 1445.43,-186 1445.43,-132.2 1445.43,-132.2"/>
<polygon fill="black" stroke="black" points="1448.93,-132.2 1445.43,-122.2 1441.93,-132.2 1448.93,-132.2"/>
</g>
<!-- HashingProvider  -->
<g id="node9" class="node">
<title>HashingProvider </title>
<polygon fill="#fb8072" stroke="black" points="1395.37,-122 1280.63,-122 1280.63,-86 1395.37,-86 1395.37,-122"/>
<text text-anchor="middle" x="1338" y="-99.8" font-family="Times,serif" font-size="14.00">HashingProvider </text>
</g>
<!-- AuthModule&#45;&gt;HashingProvider  -->
<g id="edge8" class="edge">
<title>AuthModule&#45;&gt;HashingProvider </title>
<path fill="none" stroke="black" stroke-dasharray="5,2" d="M1233.78,-174C1261.92,-174 1293.23,-174 1293.23,-174 1293.23,-174 1293.23,-132.03 1293.23,-132.03"/>
<polygon fill="black" stroke="black" points="1296.73,-132.03 1293.23,-122.03 1289.73,-132.03 1296.73,-132.03"/>
</g>
<!-- ClaimsModule -->
<g id="node2" class="node">
<title>ClaimsModule</title>
<polygon fill="#8dd3c7" stroke="black" points="1125.72,-274 1122.72,-278 1101.72,-278 1098.72,-274 1026.28,-274 1026.28,-238 1125.72,-238 1125.72,-274"/>
<text text-anchor="middle" x="1076" y="-251.8" font-family="Times,serif" font-size="14.00">ClaimsModule</text>
</g>
<!-- ClaimsModule&#45;&gt;AppModule -->
<g id="edge2" class="edge">
<title>ClaimsModule&#45;&gt;AppModule</title>
<path fill="none" stroke="black" d="M1099.03,-274.01C1099.03,-274.01 1099.03,-303.85 1099.03,-303.85"/>
<polygon fill="black" stroke="black" points="1095.53,-303.85 1099.03,-313.85 1102.53,-303.85 1095.53,-303.85"/>
</g>
<!-- ClaimsService  -->
<g id="node13" class="node">
<title>ClaimsService </title>
<polygon fill="#fb8072" stroke="black" points="1565.65,-350 1464.35,-350 1464.35,-314 1565.65,-314 1565.65,-350"/>
<text text-anchor="middle" x="1515" y="-327.8" font-family="Times,serif" font-size="14.00">ClaimsService </text>
</g>
<!-- ClaimsModule&#45;&gt;ClaimsService  -->
<g id="edge13" class="edge">
<title>ClaimsModule&#45;&gt;ClaimsService </title>
<path fill="none" stroke="black" stroke-dasharray="5,2" d="M1107.89,-274.06C1107.89,-285.44 1107.89,-298 1107.89,-298 1107.89,-298 1471.01,-298 1471.01,-298 1471.01,-298 1471.01,-303.81 1471.01,-303.81"/>
<polygon fill="black" stroke="black" points="1467.51,-303.81 1471.01,-313.81 1474.51,-303.81 1467.51,-303.81"/>
</g>
<!-- ItemsModule -->
<g id="node3" class="node">
<title>ItemsModule</title>
<polygon fill="#8dd3c7" stroke="black" points="1234.15,-274 1231.15,-278 1210.15,-278 1207.15,-274 1143.85,-274 1143.85,-238 1234.15,-238 1234.15,-274"/>
<text text-anchor="middle" x="1189" y="-251.8" font-family="Times,serif" font-size="14.00">ItemsModule</text>
</g>
<!-- ItemsModule&#45;&gt;AppModule -->
<g id="edge3" class="edge">
<title>ItemsModule&#45;&gt;AppModule</title>
<path fill="none" stroke="black" d="M1158.75,-274.01C1158.75,-274.01 1158.75,-303.85 1158.75,-303.85"/>
<polygon fill="black" stroke="black" points="1155.25,-303.85 1158.75,-313.85 1162.25,-303.85 1155.25,-303.85"/>
</g>
<!-- ItemsService  -->
<g id="node15" class="node">
<title>ItemsService </title>
<polygon fill="#fb8072" stroke="black" points="1844.08,-350 1751.92,-350 1751.92,-314 1844.08,-314 1844.08,-350"/>
<text text-anchor="middle" x="1798" y="-327.8" font-family="Times,serif" font-size="14.00">ItemsService </text>
</g>
<!-- ItemsModule&#45;&gt;ItemsService  -->
<g id="edge16" class="edge">
<title>ItemsModule&#45;&gt;ItemsService </title>
<path fill="none" stroke="black" stroke-dasharray="5,2" d="M1193.99,-274.06C1193.99,-278.49 1193.99,-282 1193.99,-282 1193.99,-282 1798,-282 1798,-282 1798,-282 1798,-303.95 1798,-303.95"/>
<polygon fill="black" stroke="black" points="1794.5,-303.95 1798,-313.95 1801.5,-303.95 1794.5,-303.95"/>
</g>
<!-- PaginationModule -->
<g id="node4" class="node">
<title>PaginationModule</title>
<polygon fill="#8dd3c7" stroke="black" points="1128.93,-198 1125.93,-202 1104.93,-202 1101.93,-198 1009.07,-198 1009.07,-162 1128.93,-162 1128.93,-198"/>
<text text-anchor="middle" x="1069" y="-175.8" font-family="Times,serif" font-size="14.00">PaginationModule</text>
</g>
<!-- PaginationModule&#45;&gt;ClaimsModule -->
<g id="edge12" class="edge">
<title>PaginationModule&#45;&gt;ClaimsModule</title>
<path fill="none" stroke="black" d="M1051.2,-198.01C1051.2,-198.01 1051.2,-227.85 1051.2,-227.85"/>
<polygon fill="black" stroke="black" points="1047.7,-227.85 1051.2,-237.85 1054.7,-227.85 1047.7,-227.85"/>
</g>
<!-- PaginationModule&#45;&gt;ItemsModule -->
<g id="edge15" class="edge">
<title>PaginationModule&#45;&gt;ItemsModule</title>
<path fill="none" stroke="black" d="M1128.85,-171C1135.5,-171 1139.94,-171 1139.94,-171 1139.94,-171 1139.94,-256 1139.94,-256 1139.94,-256 1140.32,-256 1140.32,-256"/>
<polygon fill="black" stroke="black" points="1133.79,-259.5 1143.79,-256 1133.79,-252.5 1133.79,-259.5"/>
</g>
<!-- UsersModule -->
<g id="node5" class="node">
<title>UsersModule</title>
<polygon fill="#8dd3c7" stroke="black" points="1008.92,-274 1005.92,-278 984.92,-278 981.92,-274 917.08,-274 917.08,-238 1008.92,-238 1008.92,-274"/>
<text text-anchor="middle" x="963" y="-251.8" font-family="Times,serif" font-size="14.00">UsersModule</text>
</g>
<!-- PaginationModule&#45;&gt;UsersModule -->
<g id="edge20" class="edge">
<title>PaginationModule&#45;&gt;UsersModule</title>
<path fill="none" stroke="black" d="M1017.84,-198.01C1017.84,-220.49 1017.84,-256 1017.84,-256 1017.84,-256 1016.93,-256 1016.93,-256"/>
<polygon fill="black" stroke="black" points="1018.78,-252.5 1008.78,-256 1018.78,-259.5 1018.78,-252.5"/>
</g>
<!-- PaginationModule&#45;&gt;AppModule -->
<g id="edge4" class="edge">
<title>PaginationModule&#45;&gt;AppModule</title>
<path fill="none" stroke="black" d="M1129.04,-189C1131.2,-189 1132.46,-189 1132.46,-189 1132.46,-189 1132.46,-303.89 1132.46,-303.89"/>
<polygon fill="black" stroke="black" points="1128.96,-303.89 1132.46,-313.89 1135.96,-303.89 1128.96,-303.89"/>
</g>
<!-- PaginationProvider  -->
<g id="node17" class="node">
<title>PaginationProvider </title>
<polygon fill="#fb8072" stroke="black" points="1629.59,-274 1502.41,-274 1502.41,-238 1629.59,-238 1629.59,-274"/>
<text text-anchor="middle" x="1566" y="-251.8" font-family="Times,serif" font-size="14.00">PaginationProvider </text>
</g>
<!-- PaginationModule&#45;&gt;PaginationProvider  -->
<g id="edge18" class="edge">
<title>PaginationModule&#45;&gt;PaginationProvider </title>
<path fill="none" stroke="black" stroke-dasharray="5,2" d="M1076,-198.17C1076,-202.05 1076,-205 1076,-205 1076,-205 1566.27,-205 1566.27,-205 1566.27,-205 1566.27,-227.88 1566.27,-227.88"/>
<polygon fill="black" stroke="black" points="1562.77,-227.88 1566.27,-237.88 1569.77,-227.88 1562.77,-227.88"/>
</g>
<!-- UsersModule&#45;&gt;AppModule -->
<g id="edge5" class="edge">
<title>UsersModule&#45;&gt;AppModule</title>
<path fill="none" stroke="black" d="M963,-274.03C963,-294.77 963,-326 963,-326 963,-326 1080.22,-326 1080.22,-326"/>
<polygon fill="black" stroke="black" points="1080.22,-329.5 1090.22,-326 1080.22,-322.5 1080.22,-329.5"/>
</g>
<!-- UsersService  -->
<g id="node19" class="node">
<title>UsersService </title>
<polygon fill="#fb8072" stroke="black" points="738.85,-198 645.15,-198 645.15,-162 738.85,-162 738.85,-198"/>
<text text-anchor="middle" x="692" y="-175.8" font-family="Times,serif" font-size="14.00">UsersService </text>
</g>
<!-- UsersModule&#45;&gt;UsersService  -->
<g id="edge21" class="edge">
<title>UsersModule&#45;&gt;UsersService </title>
<path fill="none" stroke="black" stroke-dasharray="5,2" d="M959.18,-237.99C959.18,-215.51 959.18,-180 959.18,-180 959.18,-180 748.85,-180 748.85,-180"/>
<polygon fill="black" stroke="black" points="748.85,-176.5 738.85,-180 748.85,-183.5 748.85,-176.5"/>
</g>
<!-- AppService -->
<g id="node7" class="node">
<title>AppService</title>
<ellipse fill="#fdb462" stroke="black" cx="836" cy="-256" rx="56.74" ry="18"/>
<text text-anchor="middle" x="836" y="-251.8" font-family="Times,serif" font-size="14.00">AppService</text>
</g>
<!-- AppService&#45;&gt;AppModule -->
<g id="edge6" class="edge">
<title>AppService&#45;&gt;AppModule</title>
<path fill="none" stroke="black" d="M836,-274.2C836,-298.36 836,-338 836,-338 836,-338 1080.22,-338 1080.22,-338"/>
<polygon fill="black" stroke="black" points="1080.22,-341.5 1090.22,-338 1080.22,-334.5 1080.22,-341.5"/>
</g>
<!-- AuthService -->
<g id="node10" class="node">
<title>AuthService</title>
<ellipse fill="#fdb462" stroke="black" cx="1045" cy="-104" rx="59.11" ry="18"/>
<text text-anchor="middle" x="1045" y="-99.8" font-family="Times,serif" font-size="14.00">AuthService</text>
</g>
<!-- AuthService&#45;&gt;AuthModule -->
<g id="edge9" class="edge">
<title>AuthService&#45;&gt;AuthModule</title>
<path fill="none" stroke="black" d="M1056.79,-121.87C1056.79,-129.2 1056.79,-136 1056.79,-136 1056.79,-136 1190,-136 1190,-136 1190,-136 1190,-151.85 1190,-151.85"/>
<polygon fill="black" stroke="black" points="1186.5,-151.85 1190,-161.85 1193.5,-151.85 1186.5,-151.85"/>
</g>
<!-- GenerateTokensProvider -->
<g id="node11" class="node">
<title>GenerateTokensProvider</title>
<ellipse fill="#fdb462" stroke="black" cx="860" cy="-104" rx="107.63" ry="18"/>
<text text-anchor="middle" x="860" y="-99.8" font-family="Times,serif" font-size="14.00">GenerateTokensProvider</text>
</g>
<!-- GenerateTokensProvider&#45;&gt;AuthModule -->
<g id="edge10" class="edge">
<title>GenerateTokensProvider&#45;&gt;AuthModule</title>
<path fill="none" stroke="black" d="M950.8,-113.99C950.8,-127.24 950.8,-149 950.8,-149 950.8,-149 1168.11,-149 1168.11,-149 1168.11,-149 1168.11,-151.97 1168.11,-151.97"/>
<polygon fill="black" stroke="black" points="1164.61,-151.97 1168.11,-161.97 1171.61,-151.97 1164.61,-151.97"/>
</g>
<!-- LoginProvider -->
<g id="node12" class="node">
<title>LoginProvider</title>
<ellipse fill="#fdb462" stroke="black" cx="1190" cy="-104" rx="67.22" ry="18"/>
<text text-anchor="middle" x="1190" y="-99.8" font-family="Times,serif" font-size="14.00">LoginProvider</text>
</g>
<!-- LoginProvider&#45;&gt;AuthModule -->
<g id="edge11" class="edge">
<title>LoginProvider&#45;&gt;AuthModule</title>
<path fill="none" stroke="black" d="M1211.89,-121.25C1211.89,-121.25 1211.89,-151.76 1211.89,-151.76"/>
<polygon fill="black" stroke="black" points="1208.39,-151.76 1211.89,-161.76 1215.39,-151.76 1208.39,-151.76"/>
</g>
<!-- ClaimsService -->
<g id="node14" class="node">
<title>ClaimsService</title>
<ellipse fill="#fdb462" stroke="black" cx="1373" cy="-332" rx="67.21" ry="18"/>
<text text-anchor="middle" x="1373" y="-327.8" font-family="Times,serif" font-size="14.00">ClaimsService</text>
</g>
<!-- ClaimsService&#45;&gt;ClaimsModule -->
<g id="edge14" class="edge">
<title>ClaimsService&#45;&gt;ClaimsModule</title>
<path fill="none" stroke="black" d="M1373.38,-313.94C1373.38,-309.51 1373.38,-306 1373.38,-306 1373.38,-306 1116.75,-306 1116.75,-306 1116.75,-306 1116.75,-284.05 1116.75,-284.05"/>
<polygon fill="black" stroke="black" points="1120.25,-284.05 1116.75,-274.05 1113.25,-284.05 1120.25,-284.05"/>
</g>
<!-- ItemsService -->
<g id="node16" class="node">
<title>ItemsService</title>
<ellipse fill="#fdb462" stroke="black" cx="1667" cy="-332" rx="61.39" ry="18"/>
<text text-anchor="middle" x="1667" y="-327.8" font-family="Times,serif" font-size="14.00">ItemsService</text>
</g>
<!-- ItemsService&#45;&gt;ItemsModule -->
<g id="edge17" class="edge">
<title>ItemsService&#45;&gt;ItemsModule</title>
<path fill="none" stroke="black" d="M1617.68,-320.96C1617.68,-308.52 1617.68,-290 1617.68,-290 1617.68,-290 1214.16,-290 1214.16,-290 1214.16,-290 1214.16,-284.19 1214.16,-284.19"/>
<polygon fill="black" stroke="black" points="1217.66,-284.19 1214.16,-274.19 1210.66,-284.19 1217.66,-284.19"/>
</g>
<!-- PaginationProvider -->
<g id="node18" class="node">
<title>PaginationProvider</title>
<ellipse fill="#fdb462" stroke="black" cx="1392" cy="-256" rx="85.69" ry="18"/>
<text text-anchor="middle" x="1392" y="-251.8" font-family="Times,serif" font-size="14.00">PaginationProvider</text>
</g>
<!-- PaginationProvider&#45;&gt;PaginationModule -->
<g id="edge19" class="edge">
<title>PaginationProvider&#45;&gt;PaginationModule</title>
<path fill="none" stroke="black" d="M1350.79,-240.13C1350.79,-235.66 1350.79,-232 1350.79,-232 1350.79,-232 1100.8,-232 1100.8,-232 1100.8,-232 1100.8,-208.19 1100.8,-208.19"/>
<polygon fill="black" stroke="black" points="1104.3,-208.19 1100.8,-198.19 1097.3,-208.19 1104.3,-208.19"/>
</g>
<!-- CreateUserProvider -->
<g id="node20" class="node">
<title>CreateUserProvider</title>
<ellipse fill="#fdb462" stroke="black" cx="533" cy="-180" rx="87.94" ry="18"/>
<text text-anchor="middle" x="533" y="-175.8" font-family="Times,serif" font-size="14.00">CreateUserProvider</text>
</g>
<!-- CreateUserProvider&#45;&gt;UsersModule -->
<g id="edge22" class="edge">
<title>CreateUserProvider&#45;&gt;UsersModule</title>
<path fill="none" stroke="black" d="M533,-198.24C533,-205.43 533,-212 533,-212 533,-212 942.43,-212 942.43,-212 942.43,-212 942.43,-227.85 942.43,-227.85"/>
<polygon fill="black" stroke="black" points="938.93,-227.85 942.43,-237.85 945.93,-227.85 938.93,-227.85"/>
</g>
<!-- FindOneUserByEmailProvider -->
<g id="node21" class="node">
<title>FindOneUserByEmailProvider</title>
<ellipse fill="#fdb462" stroke="black" cx="297" cy="-180" rx="130.8" ry="18"/>
<text text-anchor="middle" x="297" y="-175.8" font-family="Times,serif" font-size="14.00">FindOneUserByEmailProvider</text>
</g>
<!-- FindOneUserByEmailProvider&#45;&gt;UsersModule -->
<g id="edge23" class="edge">
<title>FindOneUserByEmailProvider&#45;&gt;UsersModule</title>
<path fill="none" stroke="black" d="M297,-198.11C297,-207.9 297,-218 297,-218 297,-218 934.05,-218 934.05,-218 934.05,-218 934.05,-227.89 934.05,-227.89"/>
<polygon fill="black" stroke="black" points="930.55,-227.89 934.05,-237.89 937.55,-227.89 930.55,-227.89"/>
</g>
<!-- UsersService -->
<g id="node22" class="node">
<title>UsersService</title>
<ellipse fill="#fdb462" stroke="black" cx="86" cy="-180" rx="61.95" ry="18"/>
<text text-anchor="middle" x="86" y="-175.8" font-family="Times,serif" font-size="14.00">UsersService</text>
</g>
<!-- UsersService&#45;&gt;UsersModule -->
<g id="edge24" class="edge">
<title>UsersService&#45;&gt;UsersModule</title>
<path fill="none" stroke="black" d="M86,-198.04C86,-210.56 86,-225 86,-225 86,-225 925.67,-225 925.67,-225 925.67,-225 925.67,-227.97 925.67,-227.97"/>
<polygon fill="black" stroke="black" points="922.17,-227.97 925.67,-237.97 929.17,-227.97 922.17,-227.97"/>
</g>
</g>
</svg>
