<?xml version="1.0" encoding="UTF-8" standalone="no"?>
<!DOCTYPE svg PUBLIC "-//W3C//DTD SVG 1.1//EN"
 "http://www.w3.org/Graphics/SVG/1.1/DTD/svg11.dtd">
<!-- Generated by graphviz version 2.47.0 (20210316.0004)
 -->
<!-- Title: dependencies Pages: 1 -->
<svg width="3351pt" height="439pt"
 viewBox="0.00 0.00 3351.00 439.00" xmlns="http://www.w3.org/2000/svg" xmlns:xlink="http://www.w3.org/1999/xlink">
<g id="graph0" class="graph" transform="scale(1 1) rotate(0) translate(4 435)">
<title>dependencies</title>
<polygon fill="white" stroke="transparent" points="-4,4 -4,-435 3347,-435 3347,4 -4,4"/>
<text text-anchor="start" x="1650.51" y="-42.4" font-family="Times-12" font-weight="bold" font-size="14.00">Legend</text>
<polygon fill="#ffffb3" stroke="transparent" points="1437.5,-10 1437.5,-30 1457.5,-30 1457.5,-10 1437.5,-10"/>
<text text-anchor="start" x="1461.13" y="-15.4" font-family="Times-12" font-size="14.00"> &#160;Declarations</text>
<polygon fill="#8dd3c7" stroke="transparent" points="1550.5,-10 1550.5,-30 1570.5,-30 1570.5,-10 1550.5,-10"/>
<text text-anchor="start" x="1574.23" y="-15.4" font-family="Times-12" font-size="14.00"> &#160;Module</text>
<polygon fill="#80b1d3" stroke="transparent" points="1636.5,-10 1636.5,-30 1656.5,-30 1656.5,-10 1636.5,-10"/>
<text text-anchor="start" x="1660.28" y="-15.4" font-family="Times-12" font-size="14.00"> &#160;Bootstrap</text>
<polygon fill="#fdb462" stroke="transparent" points="1733.5,-10 1733.5,-30 1753.5,-30 1753.5,-10 1733.5,-10"/>
<text text-anchor="start" x="1757.17" y="-15.4" font-family="Times-12" font-size="14.00"> &#160;Providers</text>
<polygon fill="#fb8072" stroke="transparent" points="1829.5,-10 1829.5,-30 1849.5,-30 1849.5,-10 1829.5,-10"/>
<text text-anchor="start" x="1853.23" y="-15.4" font-family="Times-12" font-size="14.00"> &#160;Exports</text>
<g id="clust1" class="cluster">
<title>cluster_AdminModule</title>
<polygon fill="none" stroke="black" stroke-dasharray="1,5" points="1953,-70 1953,-358 2567,-358 2567,-70 1953,-70"/>
</g>
<g id="clust3" class="cluster">
<title>cluster_AdminModule_imports</title>
<polygon fill="none" stroke="black" points="2311,-78 2311,-282 2547,-282 2547,-78 2311,-78"/>
</g>
<g id="clust6" class="cluster">
<title>cluster_AdminModule_providers</title>
<polygon fill="none" stroke="black" points="1973,-230 1973,-282 2303,-282 2303,-230 1973,-230"/>
</g>
<g id="clust7" class="cluster">
<title>cluster_AppModule</title>
<polygon fill="none" stroke="black" stroke-dasharray="1,5" points="1062,-298 1062,-423 1548,-423 1548,-298 1062,-298"/>
</g>
<g id="clust9" class="cluster">
<title>cluster_AppModule_imports</title>
<polygon fill="none" stroke="black" points="1208,-306 1208,-358 1540,-358 1540,-306 1208,-306"/>
</g>
<g id="clust12" class="cluster">
<title>cluster_AppModule_providers</title>
<polygon fill="none" stroke="black" points="1070,-306 1070,-358 1200,-358 1200,-306 1070,-306"/>
</g>
<g id="clust13" class="cluster">
<title>cluster_AuthModule</title>
<polygon fill="none" stroke="black" stroke-dasharray="1,5" points="8,-222 8,-290 985,-290 985,-222 8,-222"/>
</g>
<g id="clust16" class="cluster">
<title>cluster_AuthModule_exports</title>
<polygon fill="none" stroke="black" points="739,-230 739,-282 977,-282 977,-230 739,-230"/>
</g>
<g id="clust18" class="cluster">
<title>cluster_AuthModule_providers</title>
<polygon fill="none" stroke="black" points="16,-230 16,-282 731,-282 731,-230 16,-230"/>
</g>
<g id="clust19" class="cluster">
<title>cluster_ClaimsModule</title>
<polygon fill="none" stroke="black" stroke-dasharray="1,5" points="2575,-298 2575,-366 2867,-366 2867,-298 2575,-298"/>
</g>
<g id="clust22" class="cluster">
<title>cluster_ClaimsModule_exports</title>
<polygon fill="none" stroke="black" points="2741,-306 2741,-358 2859,-358 2859,-306 2741,-306"/>
</g>
<g id="clust24" class="cluster">
<title>cluster_ClaimsModule_providers</title>
<polygon fill="none" stroke="black" points="2583,-306 2583,-358 2733,-358 2733,-306 2583,-306"/>
</g>
<g id="clust25" class="cluster">
<title>cluster_ItemsModule</title>
<polygon fill="none" stroke="black" stroke-dasharray="1,5" points="2635,-222 2635,-290 2905,-290 2905,-222 2635,-222"/>
</g>
<g id="clust28" class="cluster">
<title>cluster_ItemsModule_exports</title>
<polygon fill="none" stroke="black" points="2789,-230 2789,-282 2897,-282 2897,-230 2789,-230"/>
</g>
<g id="clust30" class="cluster">
<title>cluster_ItemsModule_providers</title>
<polygon fill="none" stroke="black" points="2643,-230 2643,-282 2781,-282 2781,-230 2643,-230"/>
</g>
<g id="clust31" class="cluster">
<title>cluster_MailModule</title>
<polygon fill="none" stroke="black" stroke-dasharray="1,5" points="993,-222 993,-290 1541,-290 1541,-222 993,-222"/>
</g>
<g id="clust34" class="cluster">
<title>cluster_MailModule_exports</title>
<polygon fill="none" stroke="black" points="1303,-230 1303,-282 1533,-282 1533,-230 1303,-230"/>
</g>
<g id="clust36" class="cluster">
<title>cluster_MailModule_providers</title>
<polygon fill="none" stroke="black" points="1001,-230 1001,-282 1295,-282 1295,-230 1001,-230"/>
</g>
<g id="clust37" class="cluster">
<title>cluster_PaginationModule</title>
<polygon fill="none" stroke="black" stroke-dasharray="1,5" points="2979,-146 2979,-214 3335,-214 3335,-146 2979,-146"/>
</g>
<g id="clust40" class="cluster">
<title>cluster_PaginationModule_exports</title>
<polygon fill="none" stroke="black" points="3183,-154 3183,-206 3327,-206 3327,-154 3183,-154"/>
</g>
<g id="clust42" class="cluster">
<title>cluster_PaginationModule_providers</title>
<polygon fill="none" stroke="black" points="2987,-154 2987,-206 3175,-206 3175,-154 2987,-154"/>
</g>
<g id="clust43" class="cluster">
<title>cluster_UploadsModule</title>
<polygon fill="none" stroke="black" stroke-dasharray="1,5" points="1549,-222 1549,-290 1945,-290 1945,-222 1549,-222"/>
</g>
<g id="clust48" class="cluster">
<title>cluster_UploadsModule_providers</title>
<polygon fill="none" stroke="black" points="1557,-230 1557,-282 1937,-282 1937,-230 1557,-230"/>
</g>
<g id="clust49" class="cluster">
<title>cluster_UsersModule</title>
<polygon fill="none" stroke="black" stroke-dasharray="1,5" points="1000,-70 1000,-138 1945,-138 1945,-70 1000,-70"/>
</g>
<g id="clust52" class="cluster">
<title>cluster_UsersModule_exports</title>
<polygon fill="none" stroke="black" points="1827,-78 1827,-130 1937,-130 1937,-78 1827,-78"/>
</g>
<g id="clust54" class="cluster">
<title>cluster_UsersModule_providers</title>
<polygon fill="none" stroke="black" points="1008,-78 1008,-130 1819,-130 1819,-78 1008,-78"/>
</g>
<!-- ClaimsModule -->
<g id="node1" class="node">
<title>ClaimsModule</title>
<polygon fill="#8dd3c7" stroke="black" points="2479.72,-274 2476.72,-278 2455.72,-278 2452.72,-274 2380.28,-274 2380.28,-238 2479.72,-238 2479.72,-274"/>
<text text-anchor="middle" x="2430" y="-251.8" font-family="Times,serif" font-size="14.00">ClaimsModule</text>
</g>
<!-- AdminModule -->
<g id="node5" class="node">
<title>AdminModule</title>
<polygon fill="#8dd3c7" stroke="black" points="2277.44,-350 2274.44,-354 2253.44,-354 2250.44,-350 2178.56,-350 2178.56,-314 2277.44,-314 2277.44,-350"/>
<text text-anchor="middle" x="2228" y="-327.8" font-family="Times,serif" font-size="14.00">AdminModule</text>
</g>
<!-- ClaimsModule&#45;&gt;AdminModule -->
<g id="edge1" class="edge">
<title>ClaimsModule&#45;&gt;AdminModule</title>
<path fill="none" stroke="black" d="M2405.2,-274.15C2405.2,-297.76 2405.2,-336 2405.2,-336 2405.2,-336 2287.36,-336 2287.36,-336"/>
<polygon fill="black" stroke="black" points="2287.36,-332.5 2277.36,-336 2287.36,-339.5 2287.36,-332.5"/>
</g>
<!-- AppModule -->
<g id="node11" class="node">
<title>AppModule</title>
<polygon fill="#8dd3c7" stroke="black" points="1539.66,-415 1536.66,-419 1515.66,-419 1512.66,-415 1456.34,-415 1456.34,-379 1539.66,-379 1539.66,-415"/>
<text text-anchor="middle" x="1498" y="-392.8" font-family="Times,serif" font-size="14.00">AppModule</text>
</g>
<!-- ClaimsModule&#45;&gt;AppModule -->
<g id="edge9" class="edge">
<title>ClaimsModule&#45;&gt;AppModule</title>
<path fill="none" stroke="black" d="M2430,-274.21C2430,-311.06 2430,-391 2430,-391 2430,-391 1549.86,-391 1549.86,-391"/>
<polygon fill="black" stroke="black" points="1549.86,-387.5 1539.86,-391 1549.86,-394.5 1549.86,-387.5"/>
</g>
<!-- ClaimsService  -->
<g id="node19" class="node">
<title>ClaimsService </title>
<polygon fill="#fb8072" stroke="black" points="2850.65,-350 2749.35,-350 2749.35,-314 2850.65,-314 2850.65,-350"/>
<text text-anchor="middle" x="2800" y="-327.8" font-family="Times,serif" font-size="14.00">ClaimsService </text>
</g>
<!-- ClaimsModule&#45;&gt;ClaimsService  -->
<g id="edge25" class="edge">
<title>ClaimsModule&#45;&gt;ClaimsService </title>
<path fill="none" stroke="black" stroke-dasharray="5,2" d="M2454.8,-274.17C2454.8,-276.45 2454.8,-278 2454.8,-278 2454.8,-278 2761.44,-278 2761.44,-278 2761.44,-278 2761.44,-303.72 2761.44,-303.72"/>
<polygon fill="black" stroke="black" points="2757.94,-303.72 2761.44,-313.72 2764.94,-303.72 2757.94,-303.72"/>
</g>
<!-- ItemsModule -->
<g id="node2" class="node">
<title>ItemsModule</title>
<polygon fill="#8dd3c7" stroke="black" points="2539.15,-198 2536.15,-202 2515.15,-202 2512.15,-198 2448.85,-198 2448.85,-162 2539.15,-162 2539.15,-198"/>
<text text-anchor="middle" x="2494" y="-175.8" font-family="Times,serif" font-size="14.00">ItemsModule</text>
</g>
<!-- ItemsModule&#45;&gt;ClaimsModule -->
<g id="edge22" class="edge">
<title>ItemsModule&#45;&gt;ClaimsModule</title>
<path fill="none" stroke="black" d="M2464.14,-198.01C2464.14,-198.01 2464.14,-227.85 2464.14,-227.85"/>
<polygon fill="black" stroke="black" points="2460.64,-227.85 2464.14,-237.85 2467.64,-227.85 2460.64,-227.85"/>
</g>
<!-- ItemsModule&#45;&gt;AdminModule -->
<g id="edge2" class="edge">
<title>ItemsModule&#45;&gt;AdminModule</title>
<path fill="none" stroke="black" d="M2494.54,-198.07C2494.54,-240.51 2494.54,-343 2494.54,-343 2494.54,-343 2287.51,-343 2287.51,-343"/>
<polygon fill="black" stroke="black" points="2287.51,-339.5 2277.51,-343 2287.51,-346.5 2287.51,-339.5"/>
</g>
<!-- ItemsModule&#45;&gt;AppModule -->
<g id="edge10" class="edge">
<title>ItemsModule&#45;&gt;AppModule</title>
<path fill="none" stroke="black" d="M2509.47,-198.25C2509.47,-251.51 2509.47,-403 2509.47,-403 2509.47,-403 1549.85,-403 1549.85,-403"/>
<polygon fill="black" stroke="black" points="1549.85,-399.5 1539.85,-403 1549.85,-406.5 1549.85,-399.5"/>
</g>
<!-- ItemsService  -->
<g id="node21" class="node">
<title>ItemsService </title>
<polygon fill="#fb8072" stroke="black" points="2889.08,-274 2796.92,-274 2796.92,-238 2889.08,-238 2889.08,-274"/>
<text text-anchor="middle" x="2843" y="-251.8" font-family="Times,serif" font-size="14.00">ItemsService </text>
</g>
<!-- ItemsModule&#45;&gt;ItemsService  -->
<g id="edge28" class="edge">
<title>ItemsModule&#45;&gt;ItemsService </title>
<path fill="none" stroke="black" stroke-dasharray="5,2" d="M2539.27,-180C2633.7,-180 2843,-180 2843,-180 2843,-180 2843,-227.99 2843,-227.99"/>
<polygon fill="black" stroke="black" points="2839.5,-227.99 2843,-237.99 2846.5,-227.99 2839.5,-227.99"/>
</g>
<!-- PaginationModule -->
<g id="node3" class="node">
<title>PaginationModule</title>
<polygon fill="#8dd3c7" stroke="black" points="2538.93,-122 2535.93,-126 2514.93,-126 2511.93,-122 2419.07,-122 2419.07,-86 2538.93,-86 2538.93,-122"/>
<text text-anchor="middle" x="2479" y="-99.8" font-family="Times,serif" font-size="14.00">PaginationModule</text>
</g>
<!-- PaginationModule&#45;&gt;ClaimsModule -->
<g id="edge23" class="edge">
<title>PaginationModule&#45;&gt;ClaimsModule</title>
<path fill="none" stroke="black" d="M2441.33,-122.03C2441.33,-122.03 2441.33,-227.99 2441.33,-227.99"/>
<polygon fill="black" stroke="black" points="2437.83,-227.99 2441.33,-237.99 2444.83,-227.99 2437.83,-227.99"/>
</g>
<!-- PaginationModule&#45;&gt;ItemsModule -->
<g id="edge27" class="edge">
<title>PaginationModule&#45;&gt;ItemsModule</title>
<path fill="none" stroke="black" d="M2493.7,-122.01C2493.7,-122.01 2493.7,-151.85 2493.7,-151.85"/>
<polygon fill="black" stroke="black" points="2490.2,-151.85 2493.7,-161.85 2497.2,-151.85 2490.2,-151.85"/>
</g>
<!-- UsersModule -->
<g id="node4" class="node">
<title>UsersModule</title>
<polygon fill="#8dd3c7" stroke="black" points="2410.92,-198 2407.92,-202 2386.92,-202 2383.92,-198 2319.08,-198 2319.08,-162 2410.92,-162 2410.92,-198"/>
<text text-anchor="middle" x="2365" y="-175.8" font-family="Times,serif" font-size="14.00">UsersModule</text>
</g>
<!-- PaginationModule&#45;&gt;UsersModule -->
<g id="edge38" class="edge">
<title>PaginationModule&#45;&gt;UsersModule</title>
<path fill="none" stroke="black" d="M2433.98,-122.01C2433.98,-144.49 2433.98,-180 2433.98,-180 2433.98,-180 2421.01,-180 2421.01,-180"/>
<polygon fill="black" stroke="black" points="2421.01,-176.5 2411.01,-180 2421.01,-183.5 2421.01,-176.5"/>
</g>
<!-- PaginationModule&#45;&gt;AdminModule -->
<g id="edge3" class="edge">
<title>PaginationModule&#45;&gt;AdminModule</title>
<path fill="none" stroke="black" d="M2418.86,-110C2369.28,-110 2307.05,-110 2307.05,-110 2307.05,-110 2307.05,-322 2307.05,-322 2307.05,-322 2287.62,-322 2287.62,-322"/>
<polygon fill="black" stroke="black" points="2287.62,-318.5 2277.62,-322 2287.62,-325.5 2287.62,-318.5"/>
</g>
<!-- PaginationModule&#45;&gt;AppModule -->
<g id="edge12" class="edge">
<title>PaginationModule&#45;&gt;AppModule</title>
<path fill="none" stroke="black" d="M2426.63,-122.11C2426.63,-131.9 2426.63,-142 2426.63,-142 2426.63,-142 1534.03,-142 1534.03,-142 1534.03,-142 1534.03,-368.66 1534.03,-368.66"/>
<polygon fill="black" stroke="black" points="1530.53,-368.66 1534.03,-378.66 1537.53,-368.66 1530.53,-368.66"/>
</g>
<!-- PaginationProvider  -->
<g id="node27" class="node">
<title>PaginationProvider </title>
<polygon fill="#fb8072" stroke="black" points="3318.59,-198 3191.41,-198 3191.41,-162 3318.59,-162 3318.59,-198"/>
<text text-anchor="middle" x="3255" y="-175.8" font-family="Times,serif" font-size="14.00">PaginationProvider </text>
</g>
<!-- PaginationModule&#45;&gt;PaginationProvider  -->
<g id="edge34" class="edge">
<title>PaginationModule&#45;&gt;PaginationProvider </title>
<path fill="none" stroke="black" stroke-dasharray="5,2" d="M2538.92,-98C2720.94,-98 3255,-98 3255,-98 3255,-98 3255,-151.8 3255,-151.8"/>
<polygon fill="black" stroke="black" points="3251.5,-151.8 3255,-161.8 3258.5,-151.8 3251.5,-151.8"/>
</g>
<!-- UsersModule&#45;&gt;ClaimsModule -->
<g id="edge24" class="edge">
<title>UsersModule&#45;&gt;ClaimsModule</title>
<path fill="none" stroke="black" d="M2395.55,-198.01C2395.55,-198.01 2395.55,-227.85 2395.55,-227.85"/>
<polygon fill="black" stroke="black" points="2392.05,-227.85 2395.55,-237.85 2399.05,-227.85 2392.05,-227.85"/>
</g>
<!-- UsersModule&#45;&gt;AdminModule -->
<g id="edge4" class="edge">
<title>UsersModule&#45;&gt;AdminModule</title>
<path fill="none" stroke="black" d="M2349.84,-198.27C2349.84,-238.06 2349.84,-329 2349.84,-329 2349.84,-329 2287.56,-329 2287.56,-329"/>
<polygon fill="black" stroke="black" points="2287.56,-325.5 2277.56,-329 2287.56,-332.5 2287.56,-325.5"/>
</g>
<!-- UsersModule&#45;&gt;AppModule -->
<g id="edge14" class="edge">
<title>UsersModule&#45;&gt;AppModule</title>
<path fill="none" stroke="black" d="M2319.25,-192C2145.45,-192 1535.97,-192 1535.97,-192 1535.97,-192 1535.97,-368.81 1535.97,-368.81"/>
<polygon fill="black" stroke="black" points="1532.47,-368.81 1535.97,-378.81 1539.47,-368.81 1532.47,-368.81"/>
</g>
<!-- UsersService  -->
<g id="node31" class="node">
<title>UsersService </title>
<polygon fill="#fb8072" stroke="black" points="1928.85,-122 1835.15,-122 1835.15,-86 1928.85,-86 1928.85,-122"/>
<text text-anchor="middle" x="1882" y="-99.8" font-family="Times,serif" font-size="14.00">UsersService </text>
</g>
<!-- UsersModule&#45;&gt;UsersService  -->
<g id="edge39" class="edge">
<title>UsersModule&#45;&gt;UsersService </title>
<path fill="none" stroke="black" stroke-dasharray="5,2" d="M2365,-161.8C2365,-137.64 2365,-98 2365,-98 2365,-98 1938.75,-98 1938.75,-98"/>
<polygon fill="black" stroke="black" points="1938.75,-94.5 1928.75,-98 1938.75,-101.5 1938.75,-94.5"/>
</g>
<!-- AdminModule&#45;&gt;AppModule -->
<g id="edge7" class="edge">
<title>AdminModule&#45;&gt;AppModule</title>
<path fill="none" stroke="black" d="M2178.65,-341C2020.7,-341 1537.9,-341 1537.9,-341 1537.9,-341 1537.9,-368.97 1537.9,-368.97"/>
<polygon fill="black" stroke="black" points="1534.4,-368.97 1537.9,-378.97 1541.4,-368.97 1534.4,-368.97"/>
</g>
<!-- AdminService -->
<g id="node6" class="node">
<title>AdminService</title>
<ellipse fill="#fdb462" stroke="black" cx="2228" cy="-256" rx="66.63" ry="18"/>
<text text-anchor="middle" x="2228" y="-251.8" font-family="Times,serif" font-size="14.00">AdminService</text>
</g>
<!-- AdminService&#45;&gt;AdminModule -->
<g id="edge5" class="edge">
<title>AdminService&#45;&gt;AdminModule</title>
<path fill="none" stroke="black" d="M2228,-274.01C2228,-274.01 2228,-303.85 2228,-303.85"/>
<polygon fill="black" stroke="black" points="2224.5,-303.85 2228,-313.85 2231.5,-303.85 2224.5,-303.85"/>
</g>
<!-- AnalyticsProvider -->
<g id="node7" class="node">
<title>AnalyticsProvider</title>
<ellipse fill="#fdb462" stroke="black" cx="2062" cy="-256" rx="81.1" ry="18"/>
<text text-anchor="middle" x="2062" y="-251.8" font-family="Times,serif" font-size="14.00">AnalyticsProvider</text>
</g>
<!-- AnalyticsProvider&#45;&gt;AdminModule -->
<g id="edge6" class="edge">
<title>AnalyticsProvider&#45;&gt;AdminModule</title>
<path fill="none" stroke="black" d="M2062,-274.01C2062,-296.49 2062,-332 2062,-332 2062,-332 2168.64,-332 2168.64,-332"/>
<polygon fill="black" stroke="black" points="2168.64,-335.5 2178.64,-332 2168.64,-328.5 2168.64,-335.5"/>
</g>
<!-- AuthModule -->
<g id="node8" class="node">
<title>AuthModule</title>
<polygon fill="#8dd3c7" stroke="black" points="1303.55,-350 1300.55,-354 1279.55,-354 1276.55,-350 1216.45,-350 1216.45,-314 1303.55,-314 1303.55,-350"/>
<text text-anchor="middle" x="1260" y="-327.8" font-family="Times,serif" font-size="14.00">AuthModule</text>
</g>
<!-- AuthModule&#45;&gt;AppModule -->
<g id="edge8" class="edge">
<title>AuthModule&#45;&gt;AppModule</title>
<path fill="none" stroke="black" d="M1260,-350.11C1260,-369.34 1260,-397 1260,-397 1260,-397 1446.27,-397 1446.27,-397"/>
<polygon fill="black" stroke="black" points="1446.27,-400.5 1456.27,-397 1446.27,-393.5 1446.27,-400.5"/>
</g>
<!-- AuthService  -->
<g id="node13" class="node">
<title>AuthService </title>
<polygon fill="#fb8072" stroke="black" points="968.98,-274 879.02,-274 879.02,-238 968.98,-238 968.98,-274"/>
<text text-anchor="middle" x="924" y="-251.8" font-family="Times,serif" font-size="14.00">AuthService </text>
</g>
<!-- AuthModule&#45;&gt;AuthService  -->
<g id="edge16" class="edge">
<title>AuthModule&#45;&gt;AuthService </title>
<path fill="none" stroke="black" stroke-dasharray="5,2" d="M1277.09,-313.82C1277.09,-300.96 1277.09,-286 1277.09,-286 1277.09,-286 924,-286 924,-286 924,-286 924,-284.14 924,-284.14"/>
<polygon fill="black" stroke="black" points="927.5,-284.14 924,-274.14 920.5,-284.14 927.5,-284.14"/>
</g>
<!-- HashingProvider  -->
<g id="node14" class="node">
<title>HashingProvider </title>
<polygon fill="#fb8072" stroke="black" points="861.37,-274 746.63,-274 746.63,-238 861.37,-238 861.37,-274"/>
<text text-anchor="middle" x="804" y="-251.8" font-family="Times,serif" font-size="14.00">HashingProvider </text>
</g>
<!-- AuthModule&#45;&gt;HashingProvider  -->
<g id="edge17" class="edge">
<title>AuthModule&#45;&gt;HashingProvider </title>
<path fill="none" stroke="black" stroke-dasharray="5,2" d="M1266.94,-313.94C1266.94,-302.56 1266.94,-290 1266.94,-290 1266.94,-290 804,-290 804,-290 804,-290 804,-284.19 804,-284.19"/>
<polygon fill="black" stroke="black" points="807.5,-284.19 804,-274.19 800.5,-284.19 807.5,-284.19"/>
</g>
<!-- MailModule -->
<g id="node9" class="node">
<title>MailModule</title>
<polygon fill="#8dd3c7" stroke="black" points="1407.99,-350 1404.99,-354 1383.99,-354 1380.99,-350 1322.01,-350 1322.01,-314 1407.99,-314 1407.99,-350"/>
<text text-anchor="middle" x="1365" y="-327.8" font-family="Times,serif" font-size="14.00">MailModule</text>
</g>
<!-- MailModule&#45;&gt;AppModule -->
<g id="edge11" class="edge">
<title>MailModule&#45;&gt;AppModule</title>
<path fill="none" stroke="black" d="M1365,-350.03C1365,-366.4 1365,-388 1365,-388 1365,-388 1446.28,-388 1446.28,-388"/>
<polygon fill="black" stroke="black" points="1446.28,-391.5 1456.28,-388 1446.28,-384.5 1446.28,-391.5"/>
</g>
<!-- MailService  -->
<g id="node23" class="node">
<title>MailService </title>
<polygon fill="#fb8072" stroke="black" points="1524.92,-274 1437.08,-274 1437.08,-238 1524.92,-238 1524.92,-274"/>
<text text-anchor="middle" x="1481" y="-251.8" font-family="Times,serif" font-size="14.00">MailService </text>
</g>
<!-- MailModule&#45;&gt;MailService  -->
<g id="edge30" class="edge">
<title>MailModule&#45;&gt;MailService </title>
<path fill="none" stroke="black" stroke-dasharray="5,2" d="M1386.5,-313.83C1386.5,-311.55 1386.5,-310 1386.5,-310 1386.5,-310 1481,-310 1481,-310 1481,-310 1481,-284.28 1481,-284.28"/>
<polygon fill="black" stroke="black" points="1484.5,-284.28 1481,-274.28 1477.5,-284.28 1484.5,-284.28"/>
</g>
<!-- MailjetProvider  -->
<g id="node24" class="node">
<title>MailjetProvider </title>
<polygon fill="#fb8072" stroke="black" points="1419.15,-274 1310.85,-274 1310.85,-238 1419.15,-238 1419.15,-274"/>
<text text-anchor="middle" x="1365" y="-251.8" font-family="Times,serif" font-size="14.00">MailjetProvider </text>
</g>
<!-- MailModule&#45;&gt;MailjetProvider  -->
<g id="edge31" class="edge">
<title>MailModule&#45;&gt;MailjetProvider </title>
<path fill="none" stroke="black" stroke-dasharray="5,2" d="M1365,-313.99C1365,-313.99 1365,-284.15 1365,-284.15"/>
<polygon fill="black" stroke="black" points="1368.5,-284.15 1365,-274.15 1361.5,-284.15 1368.5,-284.15"/>
</g>
<!-- UploadsModule -->
<g id="node10" class="node">
<title>UploadsModule</title>
<polygon fill="#8dd3c7" stroke="black" points="1532.21,-350 1529.21,-354 1508.21,-354 1505.21,-350 1425.79,-350 1425.79,-314 1532.21,-314 1532.21,-350"/>
<text text-anchor="middle" x="1479" y="-327.8" font-family="Times,serif" font-size="14.00">UploadsModule</text>
</g>
<!-- UploadsModule&#45;&gt;AppModule -->
<g id="edge13" class="edge">
<title>UploadsModule&#45;&gt;AppModule</title>
<path fill="none" stroke="black" d="M1494.14,-350.11C1494.14,-350.11 1494.14,-368.99 1494.14,-368.99"/>
<polygon fill="black" stroke="black" points="1490.64,-368.99 1494.14,-378.99 1497.64,-368.99 1490.64,-368.99"/>
</g>
<!-- AppService -->
<g id="node12" class="node">
<title>AppService</title>
<ellipse fill="#fdb462" stroke="black" cx="1135" cy="-332" rx="56.74" ry="18"/>
<text text-anchor="middle" x="1135" y="-327.8" font-family="Times,serif" font-size="14.00">AppService</text>
</g>
<!-- AppService&#45;&gt;AppModule -->
<g id="edge15" class="edge">
<title>AppService&#45;&gt;AppModule</title>
<path fill="none" stroke="black" d="M1135,-350.29C1135,-372.21 1135,-406 1135,-406 1135,-406 1446,-406 1446,-406"/>
<polygon fill="black" stroke="black" points="1446,-409.5 1456,-406 1446,-402.5 1446,-409.5"/>
</g>
<!-- AuthService -->
<g id="node15" class="node">
<title>AuthService</title>
<ellipse fill="#fdb462" stroke="black" cx="317" cy="-256" rx="59.11" ry="18"/>
<text text-anchor="middle" x="317" y="-251.8" font-family="Times,serif" font-size="14.00">AuthService</text>
</g>
<!-- AuthService&#45;&gt;AuthModule -->
<g id="edge18" class="edge">
<title>AuthService&#45;&gt;AuthModule</title>
<path fill="none" stroke="black" d="M317,-274.18C317,-287.04 317,-302 317,-302 317,-302 1236.51,-302 1236.51,-302 1236.51,-302 1236.51,-303.86 1236.51,-303.86"/>
<polygon fill="black" stroke="black" points="1233.01,-303.86 1236.51,-313.86 1240.01,-303.86 1233.01,-303.86"/>
</g>
<!-- GenerateTokensProvider -->
<g id="node16" class="node">
<title>GenerateTokensProvider</title>
<ellipse fill="#fdb462" stroke="black" cx="132" cy="-256" rx="107.63" ry="18"/>
<text text-anchor="middle" x="132" y="-251.8" font-family="Times,serif" font-size="14.00">GenerateTokensProvider</text>
</g>
<!-- GenerateTokensProvider&#45;&gt;AuthModule -->
<g id="edge19" class="edge">
<title>GenerateTokensProvider&#45;&gt;AuthModule</title>
<path fill="none" stroke="black" d="M132,-274.05C132,-288.37 132,-306 132,-306 132,-306 1226.37,-306 1226.37,-306 1226.37,-306 1226.37,-306.79 1226.37,-306.79"/>
<polygon fill="black" stroke="black" points="1222.87,-303.94 1226.37,-313.94 1229.87,-303.94 1222.87,-303.94"/>
</g>
<!-- GoogleAuthService -->
<g id="node17" class="node">
<title>GoogleAuthService</title>
<ellipse fill="#fdb462" stroke="black" cx="635" cy="-256" rx="87.96" ry="18"/>
<text text-anchor="middle" x="635" y="-251.8" font-family="Times,serif" font-size="14.00">GoogleAuthService</text>
</g>
<!-- GoogleAuthService&#45;&gt;AuthModule -->
<g id="edge20" class="edge">
<title>GoogleAuthService&#45;&gt;AuthModule</title>
<path fill="none" stroke="black" d="M635,-274.11C635,-283.9 635,-294 635,-294 635,-294 1256.8,-294 1256.8,-294 1256.8,-294 1256.8,-303.89 1256.8,-303.89"/>
<polygon fill="black" stroke="black" points="1253.3,-303.89 1256.8,-313.89 1260.3,-303.89 1253.3,-303.89"/>
</g>
<!-- LoginProvider -->
<g id="node18" class="node">
<title>LoginProvider</title>
<ellipse fill="#fdb462" stroke="black" cx="462" cy="-256" rx="67.22" ry="18"/>
<text text-anchor="middle" x="462" y="-251.8" font-family="Times,serif" font-size="14.00">LoginProvider</text>
</g>
<!-- LoginProvider&#45;&gt;AuthModule -->
<g id="edge21" class="edge">
<title>LoginProvider&#45;&gt;AuthModule</title>
<path fill="none" stroke="black" d="M462,-274.06C462,-285.44 462,-298 462,-298 462,-298 1246.66,-298 1246.66,-298 1246.66,-298 1246.66,-303.81 1246.66,-303.81"/>
<polygon fill="black" stroke="black" points="1243.16,-303.81 1246.66,-313.81 1250.16,-303.81 1243.16,-303.81"/>
</g>
<!-- ClaimsService -->
<g id="node20" class="node">
<title>ClaimsService</title>
<ellipse fill="#fdb462" stroke="black" cx="2658" cy="-332" rx="67.21" ry="18"/>
<text text-anchor="middle" x="2658" y="-327.8" font-family="Times,serif" font-size="14.00">ClaimsService</text>
</g>
<!-- ClaimsService&#45;&gt;ClaimsModule -->
<g id="edge26" class="edge">
<title>ClaimsService&#45;&gt;ClaimsModule</title>
<path fill="none" stroke="black" d="M2620.6,-316.81C2620.6,-296.22 2620.6,-262 2620.6,-262 2620.6,-262 2490.08,-262 2490.08,-262"/>
<polygon fill="black" stroke="black" points="2490.08,-258.5 2480.08,-262 2490.08,-265.5 2490.08,-258.5"/>
</g>
<!-- ItemsService -->
<g id="node22" class="node">
<title>ItemsService</title>
<ellipse fill="#fdb462" stroke="black" cx="2712" cy="-256" rx="61.39" ry="18"/>
<text text-anchor="middle" x="2712" y="-251.8" font-family="Times,serif" font-size="14.00">ItemsService</text>
</g>
<!-- ItemsService&#45;&gt;ItemsModule -->
<g id="edge29" class="edge">
<title>ItemsService&#45;&gt;ItemsModule</title>
<path fill="none" stroke="black" d="M2653.93,-250C2598.83,-250 2524.4,-250 2524.4,-250 2524.4,-250 2524.4,-208.03 2524.4,-208.03"/>
<polygon fill="black" stroke="black" points="2527.9,-208.03 2524.4,-198.03 2520.9,-208.03 2527.9,-208.03"/>
</g>
<!-- MailService -->
<g id="node25" class="node">
<title>MailService</title>
<ellipse fill="#fdb462" stroke="black" cx="1229" cy="-256" rx="58.46" ry="18"/>
<text text-anchor="middle" x="1229" y="-251.8" font-family="Times,serif" font-size="14.00">MailService</text>
</g>
<!-- MailService&#45;&gt;MailModule -->
<g id="edge32" class="edge">
<title>MailService&#45;&gt;MailModule</title>
<path fill="none" stroke="black" d="M1287.58,-256C1298.91,-256 1307.35,-256 1307.35,-256 1307.35,-256 1307.35,-332 1307.35,-332 1307.35,-332 1311.9,-332 1311.9,-332"/>
<polygon fill="black" stroke="black" points="1311.9,-335.5 1321.9,-332 1311.9,-328.5 1311.9,-335.5"/>
</g>
<!-- MailjetProvider -->
<g id="node26" class="node">
<title>MailjetProvider</title>
<ellipse fill="#fdb462" stroke="black" cx="1081" cy="-256" rx="72.37" ry="18"/>
<text text-anchor="middle" x="1081" y="-251.8" font-family="Times,serif" font-size="14.00">MailjetProvider</text>
</g>
<!-- MailjetProvider&#45;&gt;MailModule -->
<g id="edge33" class="edge">
<title>MailjetProvider&#45;&gt;MailModule</title>
<path fill="none" stroke="black" d="M1115.78,-272.02C1115.78,-277.37 1115.78,-282 1115.78,-282 1115.78,-282 1343.5,-282 1343.5,-282 1343.5,-282 1343.5,-303.95 1343.5,-303.95"/>
<polygon fill="black" stroke="black" points="1340,-303.95 1343.5,-313.95 1347,-303.95 1340,-303.95"/>
</g>
<!-- PaginationProvider -->
<g id="node28" class="node">
<title>PaginationProvider</title>
<ellipse fill="#fdb462" stroke="black" cx="3081" cy="-180" rx="85.69" ry="18"/>
<text text-anchor="middle" x="3081" y="-175.8" font-family="Times,serif" font-size="14.00">PaginationProvider</text>
</g>
<!-- PaginationProvider&#45;&gt;PaginationModule -->
<g id="edge35" class="edge">
<title>PaginationProvider&#45;&gt;PaginationModule</title>
<path fill="none" stroke="black" d="M3081,-161.97C3081,-141.23 3081,-110 3081,-110 3081,-110 2548.92,-110 2548.92,-110"/>
<polygon fill="black" stroke="black" points="2548.92,-106.5 2538.92,-110 2548.92,-113.5 2548.92,-106.5"/>
</g>
<!-- UploadToAwsProvider -->
<g id="node29" class="node">
<title>UploadToAwsProvider</title>
<ellipse fill="#fdb462" stroke="black" cx="1828" cy="-256" rx="101.29" ry="18"/>
<text text-anchor="middle" x="1828" y="-251.8" font-family="Times,serif" font-size="14.00">UploadToAwsProvider</text>
</g>
<!-- UploadToAwsProvider&#45;&gt;UploadsModule -->
<g id="edge36" class="edge">
<title>UploadToAwsProvider&#45;&gt;UploadsModule</title>
<path fill="none" stroke="black" d="M1828,-274.31C1828,-294.15 1828,-323 1828,-323 1828,-323 1542.39,-323 1542.39,-323"/>
<polygon fill="black" stroke="black" points="1542.39,-319.5 1532.39,-323 1542.39,-326.5 1542.39,-319.5"/>
</g>
<!-- UploadsService -->
<g id="node30" class="node">
<title>UploadsService</title>
<ellipse fill="#fdb462" stroke="black" cx="1637" cy="-256" rx="72.35" ry="18"/>
<text text-anchor="middle" x="1637" y="-251.8" font-family="Times,serif" font-size="14.00">UploadsService</text>
</g>
<!-- UploadsService&#45;&gt;UploadsModule -->
<g id="edge37" class="edge">
<title>UploadsService&#45;&gt;UploadsModule</title>
<path fill="none" stroke="black" d="M1564.65,-256C1544.75,-256 1528.53,-256 1528.53,-256 1528.53,-256 1528.53,-303.99 1528.53,-303.99"/>
<polygon fill="black" stroke="black" points="1525.03,-303.99 1528.53,-313.99 1532.03,-303.99 1525.03,-303.99"/>
</g>
<!-- CreateUserProvider -->
<g id="node32" class="node">
<title>CreateUserProvider</title>
<ellipse fill="#fdb462" stroke="black" cx="1723" cy="-104" rx="87.94" ry="18"/>
<text text-anchor="middle" x="1723" y="-99.8" font-family="Times,serif" font-size="14.00">CreateUserProvider</text>
</g>
<!-- CreateUserProvider&#45;&gt;UsersModule -->
<g id="edge40" class="edge">
<title>CreateUserProvider&#45;&gt;UsersModule</title>
<path fill="none" stroke="black" d="M1768.79,-119.49C1768.79,-138.43 1768.79,-168 1768.79,-168 1768.79,-168 2309.21,-168 2309.21,-168"/>
<polygon fill="black" stroke="black" points="2309.21,-171.5 2319.21,-168 2309.21,-164.5 2309.21,-171.5"/>
</g>
<!-- FindOneUserByEmailProvider -->
<g id="node33" class="node">
<title>FindOneUserByEmailProvider</title>
<ellipse fill="#fdb462" stroke="black" cx="1487" cy="-104" rx="130.8" ry="18"/>
<text text-anchor="middle" x="1487" y="-99.8" font-family="Times,serif" font-size="14.00">FindOneUserByEmailProvider</text>
</g>
<!-- FindOneUserByEmailProvider&#45;&gt;UsersModule -->
<g id="edge41" class="edge">
<title>FindOneUserByEmailProvider&#45;&gt;UsersModule</title>
<path fill="none" stroke="black" d="M1591.24,-114.94C1591.24,-134.62 1591.24,-174 1591.24,-174 1591.24,-174 2309.2,-174 2309.2,-174"/>
<polygon fill="black" stroke="black" points="2309.2,-177.5 2319.2,-174 2309.2,-170.5 2309.2,-177.5"/>
</g>
<!-- UpdateUserProvider -->
<g id="node34" class="node">
<title>UpdateUserProvider</title>
<ellipse fill="#fdb462" stroke="black" cx="1248" cy="-104" rx="90.31" ry="18"/>
<text text-anchor="middle" x="1248" y="-99.8" font-family="Times,serif" font-size="14.00">UpdateUserProvider</text>
</g>
<!-- UpdateUserProvider&#45;&gt;UsersModule -->
<g id="edge42" class="edge">
<title>UpdateUserProvider&#45;&gt;UsersModule</title>
<path fill="none" stroke="black" d="M1324.67,-113.63C1324.67,-134.08 1324.67,-180 1324.67,-180 1324.67,-180 2308.96,-180 2308.96,-180"/>
<polygon fill="black" stroke="black" points="2308.96,-183.5 2318.96,-180 2308.96,-176.5 2308.96,-183.5"/>
</g>
<!-- UsersService -->
<g id="node35" class="node">
<title>UsersService</title>
<ellipse fill="#fdb462" stroke="black" cx="1078" cy="-104" rx="61.95" ry="18"/>
<text text-anchor="middle" x="1078" y="-99.8" font-family="Times,serif" font-size="14.00">UsersService</text>
</g>
<!-- UsersService&#45;&gt;UsersModule -->
<g id="edge43" class="edge">
<title>UsersService&#45;&gt;UsersModule</title>
<path fill="none" stroke="black" d="M1078,-122.2C1078,-146.36 1078,-186 1078,-186 1078,-186 2309.19,-186 2309.19,-186"/>
<polygon fill="black" stroke="black" points="2309.2,-189.5 2319.19,-186 2309.19,-182.5 2309.2,-189.5"/>
</g>
</g>
</svg>
